<mxfile host="app.diagrams.net" modified="2020-09-17T07:26:48.927Z" agent="5.0 (Windows NT 10.0; Win64; x64) AppleWebKit/537.36 (KHTML, like Gecko) Chrome/85.0.4183.102 Safari/537.36" etag="SjMAUvKu4RfLcNDmjRzM" version="13.6.9" type="github" pages="2">
  <diagram id="soaLO18ewO4P7TmvgLpl" name="第 1 页">
    <mxGraphModel dx="1760" dy="2025" grid="1" gridSize="10" guides="1" tooltips="1" connect="1" arrows="1" fold="1" page="0" pageScale="1" pageWidth="850" pageHeight="1100" background="none" math="0" shadow="0">
      <root>
        <mxCell id="0" />
        <mxCell id="1" parent="0" />
        <mxCell id="uXUEuZgN4HHDqKwv0Y2o-131" value="" style="rounded=0;whiteSpace=wrap;html=1;strokeWidth=3;" parent="1" vertex="1">
          <mxGeometry x="871" y="-640" width="840" height="570" as="geometry" />
        </mxCell>
        <mxCell id="uXUEuZgN4HHDqKwv0Y2o-255" value="" style="rounded=0;whiteSpace=wrap;html=1;strokeColor=#000000;strokeWidth=1;fontSize=21;fontColor=#FF3333;align=left;fillColor=#CCFFFF;fontStyle=1" parent="1" vertex="1">
          <mxGeometry x="871" y="-330" width="700" height="260" as="geometry" />
        </mxCell>
        <mxCell id="uXUEuZgN4HHDqKwv0Y2o-253" value="" style="rounded=0;whiteSpace=wrap;html=1;strokeColor=#000000;strokeWidth=1;fontSize=21;fontColor=#FF3333;align=left;fillColor=#CCFFFF;fontStyle=1" parent="1" vertex="1">
          <mxGeometry x="871" y="-600" width="700" height="260" as="geometry" />
        </mxCell>
        <mxCell id="uXUEuZgN4HHDqKwv0Y2o-251" value="" style="rounded=0;whiteSpace=wrap;html=1;fontSize=16;strokeColor=#3333FF;fillColor=none;strokeWidth=2;" parent="1" vertex="1">
          <mxGeometry x="880" y="-610" width="280" height="180" as="geometry" />
        </mxCell>
        <mxCell id="UFGPYld1FJ---fXv9Qsl-2" value="" style="rounded=0;whiteSpace=wrap;html=1;strokeWidth=3;" parent="1" vertex="1">
          <mxGeometry x="-200" y="-640" width="1030" height="570" as="geometry" />
        </mxCell>
        <mxCell id="uXUEuZgN4HHDqKwv0Y2o-113" value="" style="rounded=0;whiteSpace=wrap;html=1;fontSize=16;dashed=1;strokeColor=#3333FF;" parent="1" vertex="1">
          <mxGeometry x="520" y="-600" width="300" height="490" as="geometry" />
        </mxCell>
        <mxCell id="uXUEuZgN4HHDqKwv0Y2o-39" value="" style="rounded=0;whiteSpace=wrap;html=1;fontSize=16;dashed=1;strokeColor=#0000FF;" parent="1" vertex="1">
          <mxGeometry x="90" y="-600" width="420" height="490" as="geometry" />
        </mxCell>
        <mxCell id="uXUEuZgN4HHDqKwv0Y2o-50" value="" style="group" parent="1" vertex="1" connectable="0">
          <mxGeometry x="90" y="-540" width="730" height="130" as="geometry" />
        </mxCell>
        <mxCell id="uXUEuZgN4HHDqKwv0Y2o-1" value="" style="rounded=0;whiteSpace=wrap;html=1;fontSize=16;dashed=1;" parent="uXUEuZgN4HHDqKwv0Y2o-50" vertex="1">
          <mxGeometry width="730" height="110" as="geometry" />
        </mxCell>
        <mxCell id="uXUEuZgN4HHDqKwv0Y2o-47" value="" style="edgeStyle=orthogonalEdgeStyle;rounded=0;orthogonalLoop=1;jettySize=auto;html=1;fontSize=16;" parent="uXUEuZgN4HHDqKwv0Y2o-50" source="uXUEuZgN4HHDqKwv0Y2o-2" edge="1">
          <mxGeometry relative="1" as="geometry">
            <mxPoint x="150" y="55" as="targetPoint" />
          </mxGeometry>
        </mxCell>
        <mxCell id="uXUEuZgN4HHDqKwv0Y2o-2" value="Map" style="rounded=0;whiteSpace=wrap;html=1;fillColor=#dae8fc;fontSize=16;strokeColor=#6c8ebf;" parent="uXUEuZgN4HHDqKwv0Y2o-50" vertex="1">
          <mxGeometry x="10" y="25" width="60" height="60" as="geometry" />
        </mxCell>
        <mxCell id="uXUEuZgN4HHDqKwv0Y2o-4" value="partition" style="rounded=0;whiteSpace=wrap;html=1;fillColor=#fff2cc;fontSize=16;strokeColor=#d6b656;" parent="uXUEuZgN4HHDqKwv0Y2o-50" vertex="1">
          <mxGeometry x="90" y="37.5" width="90" height="35" as="geometry" />
        </mxCell>
        <mxCell id="uXUEuZgN4HHDqKwv0Y2o-36" style="edgeStyle=orthogonalEdgeStyle;rounded=0;orthogonalLoop=1;jettySize=auto;html=1;exitX=1;exitY=0.5;exitDx=0;exitDy=0;fontSize=16;" parent="uXUEuZgN4HHDqKwv0Y2o-50" source="uXUEuZgN4HHDqKwv0Y2o-2" target="uXUEuZgN4HHDqKwv0Y2o-4" edge="1">
          <mxGeometry relative="1" as="geometry" />
        </mxCell>
        <mxCell id="uXUEuZgN4HHDqKwv0Y2o-7" value="" style="group" parent="uXUEuZgN4HHDqKwv0Y2o-50" vertex="1" connectable="0">
          <mxGeometry x="210" y="15" width="80" height="80" as="geometry" />
        </mxCell>
        <mxCell id="uXUEuZgN4HHDqKwv0Y2o-5" value="" style="ellipse;whiteSpace=wrap;html=1;aspect=fixed;fillColor=#d5e8d4;fontSize=16;strokeColor=#82b366;" parent="uXUEuZgN4HHDqKwv0Y2o-7" vertex="1">
          <mxGeometry width="80" height="80" as="geometry" />
        </mxCell>
        <mxCell id="uXUEuZgN4HHDqKwv0Y2o-6" value="kv buffer" style="ellipse;whiteSpace=wrap;html=1;aspect=fixed;fontSize=16;" parent="uXUEuZgN4HHDqKwv0Y2o-7" vertex="1">
          <mxGeometry x="12.5" y="12.5" width="55" height="55" as="geometry" />
        </mxCell>
        <mxCell id="uXUEuZgN4HHDqKwv0Y2o-37" style="edgeStyle=orthogonalEdgeStyle;rounded=0;orthogonalLoop=1;jettySize=auto;html=1;exitX=1;exitY=0.5;exitDx=0;exitDy=0;entryX=0;entryY=0.5;entryDx=0;entryDy=0;fontSize=16;" parent="uXUEuZgN4HHDqKwv0Y2o-50" source="uXUEuZgN4HHDqKwv0Y2o-4" target="uXUEuZgN4HHDqKwv0Y2o-5" edge="1">
          <mxGeometry relative="1" as="geometry" />
        </mxCell>
        <mxCell id="uXUEuZgN4HHDqKwv0Y2o-9" value="sort" style="rounded=1;whiteSpace=wrap;html=1;fontSize=16;fontStyle=0;fillColor=#f8cecc;strokeColor=#b85450;" parent="uXUEuZgN4HHDqKwv0Y2o-50" vertex="1">
          <mxGeometry x="330" width="70" height="30" as="geometry" />
        </mxCell>
        <mxCell id="uXUEuZgN4HHDqKwv0Y2o-11" value="sort" style="rounded=1;whiteSpace=wrap;html=1;fontSize=16;fontStyle=0;fillColor=#f8cecc;strokeColor=#b85450;" parent="uXUEuZgN4HHDqKwv0Y2o-50" vertex="1">
          <mxGeometry x="330" y="42.5" width="70" height="30" as="geometry" />
        </mxCell>
        <mxCell id="uXUEuZgN4HHDqKwv0Y2o-12" value="sort" style="rounded=1;whiteSpace=wrap;html=1;fontSize=16;fontStyle=0;fillColor=#f8cecc;strokeColor=#b85450;" parent="uXUEuZgN4HHDqKwv0Y2o-50" vertex="1">
          <mxGeometry x="330" y="80" width="70" height="30" as="geometry" />
        </mxCell>
        <mxCell id="uXUEuZgN4HHDqKwv0Y2o-13" value="" style="endArrow=classic;html=1;fontSize=16;" parent="uXUEuZgN4HHDqKwv0Y2o-50" edge="1">
          <mxGeometry width="50" height="50" relative="1" as="geometry">
            <mxPoint x="290" y="50" as="sourcePoint" />
            <mxPoint x="330" y="10" as="targetPoint" />
          </mxGeometry>
        </mxCell>
        <mxCell id="uXUEuZgN4HHDqKwv0Y2o-14" value="" style="endArrow=classic;html=1;fontSize=16;entryX=0;entryY=0.5;entryDx=0;entryDy=0;exitX=1;exitY=0.5;exitDx=0;exitDy=0;" parent="uXUEuZgN4HHDqKwv0Y2o-50" source="uXUEuZgN4HHDqKwv0Y2o-5" target="uXUEuZgN4HHDqKwv0Y2o-11" edge="1">
          <mxGeometry width="50" height="50" relative="1" as="geometry">
            <mxPoint x="300" y="60" as="sourcePoint" />
            <mxPoint x="340" y="20" as="targetPoint" />
          </mxGeometry>
        </mxCell>
        <mxCell id="uXUEuZgN4HHDqKwv0Y2o-15" value="" style="endArrow=classic;html=1;fontSize=16;entryX=0;entryY=0.5;entryDx=0;entryDy=0;exitX=1;exitY=0.5;exitDx=0;exitDy=0;" parent="uXUEuZgN4HHDqKwv0Y2o-50" source="uXUEuZgN4HHDqKwv0Y2o-5" target="uXUEuZgN4HHDqKwv0Y2o-12" edge="1">
          <mxGeometry width="50" height="50" relative="1" as="geometry">
            <mxPoint x="310" y="70" as="sourcePoint" />
            <mxPoint x="350" y="30" as="targetPoint" />
          </mxGeometry>
        </mxCell>
        <mxCell id="uXUEuZgN4HHDqKwv0Y2o-16" value="spill" style="rounded=1;whiteSpace=wrap;html=1;fontSize=16;fontStyle=0;strokeColor=#666666;fontColor=#333333;fillColor=#DEDEDE;" parent="uXUEuZgN4HHDqKwv0Y2o-50" vertex="1">
          <mxGeometry x="440" width="70" height="30" as="geometry" />
        </mxCell>
        <mxCell id="uXUEuZgN4HHDqKwv0Y2o-17" value="spill" style="rounded=1;whiteSpace=wrap;html=1;fontSize=16;fontStyle=0;strokeColor=#666666;fontColor=#333333;fillColor=#DEDEDE;" parent="uXUEuZgN4HHDqKwv0Y2o-50" vertex="1">
          <mxGeometry x="440" y="42.5" width="70" height="30" as="geometry" />
        </mxCell>
        <mxCell id="uXUEuZgN4HHDqKwv0Y2o-18" value="spill" style="rounded=1;whiteSpace=wrap;html=1;fontSize=16;fontStyle=0;strokeColor=#666666;fontColor=#333333;fillColor=#DEDEDE;" parent="uXUEuZgN4HHDqKwv0Y2o-50" vertex="1">
          <mxGeometry x="440" y="80" width="70" height="30" as="geometry" />
        </mxCell>
        <mxCell id="uXUEuZgN4HHDqKwv0Y2o-22" value="Merge" style="rounded=1;whiteSpace=wrap;html=1;fontSize=16;fontStyle=0;strokeColor=#666666;fontColor=#333333;fillColor=#999999;" parent="uXUEuZgN4HHDqKwv0Y2o-50" vertex="1">
          <mxGeometry x="550" y="42.5" width="70" height="30" as="geometry" />
        </mxCell>
        <mxCell id="uXUEuZgN4HHDqKwv0Y2o-23" value="" style="endArrow=classic;html=1;fontSize=16;" parent="uXUEuZgN4HHDqKwv0Y2o-50" source="uXUEuZgN4HHDqKwv0Y2o-9" edge="1">
          <mxGeometry width="50" height="50" relative="1" as="geometry">
            <mxPoint x="390" y="60" as="sourcePoint" />
            <mxPoint x="440" y="10" as="targetPoint" />
          </mxGeometry>
        </mxCell>
        <mxCell id="uXUEuZgN4HHDqKwv0Y2o-25" value="" style="endArrow=classic;html=1;fontSize=16;exitX=1;exitY=0.5;exitDx=0;exitDy=0;entryX=0;entryY=0.5;entryDx=0;entryDy=0;" parent="uXUEuZgN4HHDqKwv0Y2o-50" source="uXUEuZgN4HHDqKwv0Y2o-11" target="uXUEuZgN4HHDqKwv0Y2o-17" edge="1">
          <mxGeometry width="50" height="50" relative="1" as="geometry">
            <mxPoint x="410" y="22.666666666666742" as="sourcePoint" />
            <mxPoint x="450" y="20" as="targetPoint" />
          </mxGeometry>
        </mxCell>
        <mxCell id="uXUEuZgN4HHDqKwv0Y2o-26" value="" style="endArrow=classic;html=1;fontSize=16;entryX=0;entryY=0.5;entryDx=0;entryDy=0;exitX=1;exitY=0.5;exitDx=0;exitDy=0;" parent="uXUEuZgN4HHDqKwv0Y2o-50" source="uXUEuZgN4HHDqKwv0Y2o-12" target="uXUEuZgN4HHDqKwv0Y2o-18" edge="1">
          <mxGeometry width="50" height="50" relative="1" as="geometry">
            <mxPoint x="420" y="32.66666666666674" as="sourcePoint" />
            <mxPoint x="460" y="30" as="targetPoint" />
          </mxGeometry>
        </mxCell>
        <mxCell id="uXUEuZgN4HHDqKwv0Y2o-27" value="" style="endArrow=classic;html=1;fontSize=16;entryX=0;entryY=0.5;entryDx=0;entryDy=0;exitX=1;exitY=0.5;exitDx=0;exitDy=0;" parent="uXUEuZgN4HHDqKwv0Y2o-50" source="uXUEuZgN4HHDqKwv0Y2o-16" target="uXUEuZgN4HHDqKwv0Y2o-22" edge="1">
          <mxGeometry width="50" height="50" relative="1" as="geometry">
            <mxPoint x="430" y="42.66666666666674" as="sourcePoint" />
            <mxPoint x="470" y="40" as="targetPoint" />
          </mxGeometry>
        </mxCell>
        <mxCell id="uXUEuZgN4HHDqKwv0Y2o-28" value="" style="endArrow=classic;html=1;fontSize=16;entryX=0;entryY=0.5;entryDx=0;entryDy=0;" parent="uXUEuZgN4HHDqKwv0Y2o-50" target="uXUEuZgN4HHDqKwv0Y2o-22" edge="1">
          <mxGeometry width="50" height="50" relative="1" as="geometry">
            <mxPoint x="510" y="58" as="sourcePoint" />
            <mxPoint x="480" y="50" as="targetPoint" />
          </mxGeometry>
        </mxCell>
        <mxCell id="uXUEuZgN4HHDqKwv0Y2o-29" value="" style="endArrow=classic;html=1;fontSize=16;entryX=0;entryY=0.5;entryDx=0;entryDy=0;exitX=1;exitY=0.5;exitDx=0;exitDy=0;" parent="uXUEuZgN4HHDqKwv0Y2o-50" source="uXUEuZgN4HHDqKwv0Y2o-18" target="uXUEuZgN4HHDqKwv0Y2o-22" edge="1">
          <mxGeometry width="50" height="50" relative="1" as="geometry">
            <mxPoint x="450" y="62.66666666666674" as="sourcePoint" />
            <mxPoint x="490" y="60" as="targetPoint" />
          </mxGeometry>
        </mxCell>
        <mxCell id="uXUEuZgN4HHDqKwv0Y2o-30" value="1" style="rounded=0;whiteSpace=wrap;html=1;fontSize=16;strokeColor=#d6b656;fillColor=#FF8000;" parent="uXUEuZgN4HHDqKwv0Y2o-50" vertex="1">
          <mxGeometry x="650" y="37.5" width="20" height="35" as="geometry" />
        </mxCell>
        <mxCell id="uXUEuZgN4HHDqKwv0Y2o-31" value="2" style="rounded=0;whiteSpace=wrap;html=1;fontSize=16;strokeColor=#d6b656;fillColor=#FFFF99;" parent="uXUEuZgN4HHDqKwv0Y2o-50" vertex="1">
          <mxGeometry x="670" y="37.5" width="40" height="35" as="geometry" />
        </mxCell>
        <mxCell id="uXUEuZgN4HHDqKwv0Y2o-34" value="" style="endArrow=classic;html=1;fontSize=16;entryX=0;entryY=0.5;entryDx=0;entryDy=0;exitX=1;exitY=0.5;exitDx=0;exitDy=0;" parent="uXUEuZgN4HHDqKwv0Y2o-50" source="uXUEuZgN4HHDqKwv0Y2o-22" target="uXUEuZgN4HHDqKwv0Y2o-30" edge="1">
          <mxGeometry width="50" height="50" relative="1" as="geometry">
            <mxPoint x="520" y="220" as="sourcePoint" />
            <mxPoint x="570" y="170" as="targetPoint" />
          </mxGeometry>
        </mxCell>
        <mxCell id="uXUEuZgN4HHDqKwv0Y2o-122" value="" style="rounded=0;whiteSpace=wrap;html=1;fontSize=16;fillColor=none;" parent="uXUEuZgN4HHDqKwv0Y2o-50" vertex="1">
          <mxGeometry x="320" y="-15" width="200" height="135" as="geometry" />
        </mxCell>
        <mxCell id="uXUEuZgN4HHDqKwv0Y2o-40" value="" style="rounded=0;whiteSpace=wrap;html=1;fontSize=16;dashed=1;strokeColor=#3333FF;" parent="1" vertex="1">
          <mxGeometry x="-180" y="-600" width="260" height="490" as="geometry" />
        </mxCell>
        <mxCell id="UFGPYld1FJ---fXv9Qsl-3" value="Map 阶段" style="text;html=1;strokeColor=none;fillColor=none;align=center;verticalAlign=middle;whiteSpace=wrap;rounded=0;fontSize=20;fontStyle=1" parent="1" vertex="1">
          <mxGeometry x="210" y="-640" width="100" height="40" as="geometry" />
        </mxCell>
        <mxCell id="UFGPYld1FJ---fXv9Qsl-4" value="" style="rounded=1;whiteSpace=wrap;html=1;fontSize=16;" parent="1" vertex="1">
          <mxGeometry x="-170" y="-550" width="120" height="430" as="geometry" />
        </mxCell>
        <mxCell id="UFGPYld1FJ---fXv9Qsl-6" value="大 文件" style="rounded=0;whiteSpace=wrap;html=1;fontSize=16;strokeColor=#666666;fontColor=#333333;fillColor=#A1A1A1;" parent="1" vertex="1">
          <mxGeometry x="-155" y="-460" width="90" height="60" as="geometry" />
        </mxCell>
        <mxCell id="UFGPYld1FJ---fXv9Qsl-7" value="小 文件" style="rounded=0;whiteSpace=wrap;html=1;fontSize=16;strokeColor=#666666;fontColor=#333333;fillColor=#A1A1A1;" parent="1" vertex="1">
          <mxGeometry x="-155" y="-300" width="90" height="40" as="geometry" />
        </mxCell>
        <mxCell id="UFGPYld1FJ---fXv9Qsl-9" value="" style="rounded=1;whiteSpace=wrap;html=1;fontSize=16;" parent="1" vertex="1">
          <mxGeometry x="-50" y="-550" width="120" height="430" as="geometry" />
        </mxCell>
        <mxCell id="uXUEuZgN4HHDqKwv0Y2o-35" style="edgeStyle=orthogonalEdgeStyle;rounded=0;orthogonalLoop=1;jettySize=auto;html=1;exitX=1;exitY=0.5;exitDx=0;exitDy=0;entryX=0;entryY=0.5;entryDx=0;entryDy=0;fontSize=16;" parent="1" source="UFGPYld1FJ---fXv9Qsl-10" target="uXUEuZgN4HHDqKwv0Y2o-2" edge="1">
          <mxGeometry relative="1" as="geometry" />
        </mxCell>
        <mxCell id="UFGPYld1FJ---fXv9Qsl-10" value="split 0" style="rounded=0;whiteSpace=wrap;html=1;fillColor=#fff2cc;fontSize=16;strokeColor=#d6b656;" parent="1" vertex="1">
          <mxGeometry x="-40" y="-510" width="100" height="50" as="geometry" />
        </mxCell>
        <mxCell id="UFGPYld1FJ---fXv9Qsl-12" value="split 1" style="rounded=0;whiteSpace=wrap;html=1;fillColor=#fff2cc;fontSize=16;strokeColor=#d6b656;" parent="1" vertex="1">
          <mxGeometry x="-40" y="-380" width="100" height="50" as="geometry" />
        </mxCell>
        <mxCell id="UFGPYld1FJ---fXv9Qsl-13" value="split 2" style="rounded=0;whiteSpace=wrap;html=1;fillColor=#fff2cc;fontSize=16;strokeColor=#d6b656;" parent="1" vertex="1">
          <mxGeometry x="-40" y="-240" width="100" height="50" as="geometry" />
        </mxCell>
        <mxCell id="UFGPYld1FJ---fXv9Qsl-14" value="HDFS" style="rounded=1;whiteSpace=wrap;html=1;fontSize=16;fontStyle=0;fillColor=#f8cecc;strokeColor=#b85450;" parent="1" vertex="1">
          <mxGeometry x="-170" y="-160" width="240" height="40" as="geometry" />
        </mxCell>
        <mxCell id="UFGPYld1FJ---fXv9Qsl-16" value="" style="endArrow=classic;html=1;fontSize=16;exitX=0.5;exitY=0;exitDx=0;exitDy=0;" parent="1" source="UFGPYld1FJ---fXv9Qsl-6" edge="1">
          <mxGeometry width="50" height="50" relative="1" as="geometry">
            <mxPoint x="-90" y="-450" as="sourcePoint" />
            <mxPoint x="-40" y="-500" as="targetPoint" />
          </mxGeometry>
        </mxCell>
        <mxCell id="UFGPYld1FJ---fXv9Qsl-17" value="" style="endArrow=classic;html=1;fontSize=16;exitX=0.5;exitY=1;exitDx=0;exitDy=0;entryX=0;entryY=0.75;entryDx=0;entryDy=0;" parent="1" source="UFGPYld1FJ---fXv9Qsl-6" target="UFGPYld1FJ---fXv9Qsl-12" edge="1">
          <mxGeometry width="50" height="50" relative="1" as="geometry">
            <mxPoint x="-100" y="-450" as="sourcePoint" />
            <mxPoint x="-30" y="-490" as="targetPoint" />
          </mxGeometry>
        </mxCell>
        <mxCell id="UFGPYld1FJ---fXv9Qsl-18" value="" style="endArrow=classic;html=1;fontSize=16;exitX=0.5;exitY=0;exitDx=0;exitDy=0;entryX=0;entryY=0.5;entryDx=0;entryDy=0;" parent="1" target="UFGPYld1FJ---fXv9Qsl-13" edge="1">
          <mxGeometry width="50" height="50" relative="1" as="geometry">
            <mxPoint x="-100" y="-260" as="sourcePoint" />
            <mxPoint x="-30" y="-300" as="targetPoint" />
          </mxGeometry>
        </mxCell>
        <mxCell id="uXUEuZgN4HHDqKwv0Y2o-41" value="1 读取数据" style="text;html=1;strokeColor=none;fillColor=none;align=center;verticalAlign=middle;whiteSpace=wrap;rounded=0;fontSize=16;" parent="1" vertex="1">
          <mxGeometry x="-20" y="-590" width="100" height="20" as="geometry" />
        </mxCell>
        <mxCell id="uXUEuZgN4HHDqKwv0Y2o-43" value="2 处理数据" style="text;html=1;strokeColor=none;fillColor=none;align=center;verticalAlign=middle;whiteSpace=wrap;rounded=0;fontSize=16;" parent="1" vertex="1">
          <mxGeometry x="413" y="-590" width="100" height="20" as="geometry" />
        </mxCell>
        <mxCell id="uXUEuZgN4HHDqKwv0Y2o-51" value="" style="group" parent="1" vertex="1" connectable="0">
          <mxGeometry x="90" y="-392" width="730" height="110" as="geometry" />
        </mxCell>
        <mxCell id="uXUEuZgN4HHDqKwv0Y2o-52" value="" style="rounded=0;whiteSpace=wrap;html=1;fontSize=16;dashed=1;" parent="uXUEuZgN4HHDqKwv0Y2o-51" vertex="1">
          <mxGeometry width="730" height="110" as="geometry" />
        </mxCell>
        <mxCell id="uXUEuZgN4HHDqKwv0Y2o-53" value="" style="edgeStyle=orthogonalEdgeStyle;rounded=0;orthogonalLoop=1;jettySize=auto;html=1;fontSize=16;" parent="uXUEuZgN4HHDqKwv0Y2o-51" source="uXUEuZgN4HHDqKwv0Y2o-54" edge="1">
          <mxGeometry relative="1" as="geometry">
            <mxPoint x="150" y="55" as="targetPoint" />
          </mxGeometry>
        </mxCell>
        <mxCell id="uXUEuZgN4HHDqKwv0Y2o-54" value="Map" style="rounded=0;whiteSpace=wrap;html=1;fillColor=#dae8fc;fontSize=16;strokeColor=#6c8ebf;" parent="uXUEuZgN4HHDqKwv0Y2o-51" vertex="1">
          <mxGeometry x="10" y="25" width="60" height="60" as="geometry" />
        </mxCell>
        <mxCell id="uXUEuZgN4HHDqKwv0Y2o-55" value="partition" style="rounded=0;whiteSpace=wrap;html=1;fillColor=#fff2cc;fontSize=16;strokeColor=#d6b656;" parent="uXUEuZgN4HHDqKwv0Y2o-51" vertex="1">
          <mxGeometry x="90" y="37.5" width="90" height="35" as="geometry" />
        </mxCell>
        <mxCell id="uXUEuZgN4HHDqKwv0Y2o-56" style="edgeStyle=orthogonalEdgeStyle;rounded=0;orthogonalLoop=1;jettySize=auto;html=1;exitX=1;exitY=0.5;exitDx=0;exitDy=0;fontSize=16;" parent="uXUEuZgN4HHDqKwv0Y2o-51" source="uXUEuZgN4HHDqKwv0Y2o-54" target="uXUEuZgN4HHDqKwv0Y2o-55" edge="1">
          <mxGeometry relative="1" as="geometry" />
        </mxCell>
        <mxCell id="uXUEuZgN4HHDqKwv0Y2o-57" value="" style="group" parent="uXUEuZgN4HHDqKwv0Y2o-51" vertex="1" connectable="0">
          <mxGeometry x="210" y="15" width="80" height="80" as="geometry" />
        </mxCell>
        <mxCell id="uXUEuZgN4HHDqKwv0Y2o-58" value="" style="ellipse;whiteSpace=wrap;html=1;aspect=fixed;fillColor=#d5e8d4;fontSize=16;strokeColor=#82b366;" parent="uXUEuZgN4HHDqKwv0Y2o-57" vertex="1">
          <mxGeometry width="80" height="80" as="geometry" />
        </mxCell>
        <mxCell id="uXUEuZgN4HHDqKwv0Y2o-59" value="kv buffer" style="ellipse;whiteSpace=wrap;html=1;aspect=fixed;fontSize=16;" parent="uXUEuZgN4HHDqKwv0Y2o-57" vertex="1">
          <mxGeometry x="12.5" y="12.5" width="55" height="55" as="geometry" />
        </mxCell>
        <mxCell id="uXUEuZgN4HHDqKwv0Y2o-60" style="edgeStyle=orthogonalEdgeStyle;rounded=0;orthogonalLoop=1;jettySize=auto;html=1;exitX=1;exitY=0.5;exitDx=0;exitDy=0;entryX=0;entryY=0.5;entryDx=0;entryDy=0;fontSize=16;" parent="uXUEuZgN4HHDqKwv0Y2o-51" source="uXUEuZgN4HHDqKwv0Y2o-55" target="uXUEuZgN4HHDqKwv0Y2o-58" edge="1">
          <mxGeometry relative="1" as="geometry" />
        </mxCell>
        <mxCell id="uXUEuZgN4HHDqKwv0Y2o-61" value="sort" style="rounded=1;whiteSpace=wrap;html=1;fontSize=16;fontStyle=0;fillColor=#f8cecc;strokeColor=#b85450;" parent="uXUEuZgN4HHDqKwv0Y2o-51" vertex="1">
          <mxGeometry x="330" width="70" height="30" as="geometry" />
        </mxCell>
        <mxCell id="uXUEuZgN4HHDqKwv0Y2o-62" value="sort" style="rounded=1;whiteSpace=wrap;html=1;fontSize=16;fontStyle=0;fillColor=#f8cecc;strokeColor=#b85450;" parent="uXUEuZgN4HHDqKwv0Y2o-51" vertex="1">
          <mxGeometry x="330" y="42.5" width="70" height="30" as="geometry" />
        </mxCell>
        <mxCell id="uXUEuZgN4HHDqKwv0Y2o-63" value="sort" style="rounded=1;whiteSpace=wrap;html=1;fontSize=16;fontStyle=0;fillColor=#f8cecc;strokeColor=#b85450;" parent="uXUEuZgN4HHDqKwv0Y2o-51" vertex="1">
          <mxGeometry x="330" y="80" width="70" height="30" as="geometry" />
        </mxCell>
        <mxCell id="uXUEuZgN4HHDqKwv0Y2o-64" value="" style="endArrow=classic;html=1;fontSize=16;" parent="uXUEuZgN4HHDqKwv0Y2o-51" edge="1">
          <mxGeometry width="50" height="50" relative="1" as="geometry">
            <mxPoint x="290" y="50" as="sourcePoint" />
            <mxPoint x="330" y="10" as="targetPoint" />
          </mxGeometry>
        </mxCell>
        <mxCell id="uXUEuZgN4HHDqKwv0Y2o-65" value="" style="endArrow=classic;html=1;fontSize=16;entryX=0;entryY=0.5;entryDx=0;entryDy=0;exitX=1;exitY=0.5;exitDx=0;exitDy=0;" parent="uXUEuZgN4HHDqKwv0Y2o-51" source="uXUEuZgN4HHDqKwv0Y2o-58" target="uXUEuZgN4HHDqKwv0Y2o-62" edge="1">
          <mxGeometry width="50" height="50" relative="1" as="geometry">
            <mxPoint x="300" y="60" as="sourcePoint" />
            <mxPoint x="340" y="20" as="targetPoint" />
          </mxGeometry>
        </mxCell>
        <mxCell id="uXUEuZgN4HHDqKwv0Y2o-66" value="" style="endArrow=classic;html=1;fontSize=16;entryX=0;entryY=0.5;entryDx=0;entryDy=0;exitX=1;exitY=0.5;exitDx=0;exitDy=0;" parent="uXUEuZgN4HHDqKwv0Y2o-51" source="uXUEuZgN4HHDqKwv0Y2o-58" target="uXUEuZgN4HHDqKwv0Y2o-63" edge="1">
          <mxGeometry width="50" height="50" relative="1" as="geometry">
            <mxPoint x="310" y="70" as="sourcePoint" />
            <mxPoint x="350" y="30" as="targetPoint" />
          </mxGeometry>
        </mxCell>
        <mxCell id="uXUEuZgN4HHDqKwv0Y2o-67" value="spill" style="rounded=1;whiteSpace=wrap;html=1;fontSize=16;fontStyle=0;strokeColor=#666666;fontColor=#333333;fillColor=#DEDEDE;" parent="uXUEuZgN4HHDqKwv0Y2o-51" vertex="1">
          <mxGeometry x="440" width="70" height="30" as="geometry" />
        </mxCell>
        <mxCell id="uXUEuZgN4HHDqKwv0Y2o-68" value="spill" style="rounded=1;whiteSpace=wrap;html=1;fontSize=16;fontStyle=0;strokeColor=#666666;fontColor=#333333;fillColor=#DEDEDE;" parent="uXUEuZgN4HHDqKwv0Y2o-51" vertex="1">
          <mxGeometry x="440" y="42.5" width="70" height="30" as="geometry" />
        </mxCell>
        <mxCell id="uXUEuZgN4HHDqKwv0Y2o-69" value="spill" style="rounded=1;whiteSpace=wrap;html=1;fontSize=16;fontStyle=0;strokeColor=#666666;fontColor=#333333;fillColor=#DEDEDE;" parent="uXUEuZgN4HHDqKwv0Y2o-51" vertex="1">
          <mxGeometry x="440" y="80" width="70" height="30" as="geometry" />
        </mxCell>
        <mxCell id="uXUEuZgN4HHDqKwv0Y2o-70" value="Merge" style="rounded=1;whiteSpace=wrap;html=1;fontSize=16;fontStyle=0;strokeColor=#666666;fontColor=#333333;fillColor=#999999;" parent="uXUEuZgN4HHDqKwv0Y2o-51" vertex="1">
          <mxGeometry x="550" y="42.5" width="70" height="30" as="geometry" />
        </mxCell>
        <mxCell id="uXUEuZgN4HHDqKwv0Y2o-71" value="" style="endArrow=classic;html=1;fontSize=16;" parent="uXUEuZgN4HHDqKwv0Y2o-51" source="uXUEuZgN4HHDqKwv0Y2o-61" edge="1">
          <mxGeometry width="50" height="50" relative="1" as="geometry">
            <mxPoint x="390" y="60" as="sourcePoint" />
            <mxPoint x="440" y="10" as="targetPoint" />
          </mxGeometry>
        </mxCell>
        <mxCell id="uXUEuZgN4HHDqKwv0Y2o-72" value="" style="endArrow=classic;html=1;fontSize=16;exitX=1;exitY=0.5;exitDx=0;exitDy=0;entryX=0;entryY=0.5;entryDx=0;entryDy=0;" parent="uXUEuZgN4HHDqKwv0Y2o-51" source="uXUEuZgN4HHDqKwv0Y2o-62" target="uXUEuZgN4HHDqKwv0Y2o-68" edge="1">
          <mxGeometry width="50" height="50" relative="1" as="geometry">
            <mxPoint x="410" y="22.666666666666742" as="sourcePoint" />
            <mxPoint x="450" y="20" as="targetPoint" />
          </mxGeometry>
        </mxCell>
        <mxCell id="uXUEuZgN4HHDqKwv0Y2o-73" value="" style="endArrow=classic;html=1;fontSize=16;entryX=0;entryY=0.5;entryDx=0;entryDy=0;exitX=1;exitY=0.5;exitDx=0;exitDy=0;" parent="uXUEuZgN4HHDqKwv0Y2o-51" source="uXUEuZgN4HHDqKwv0Y2o-63" target="uXUEuZgN4HHDqKwv0Y2o-69" edge="1">
          <mxGeometry width="50" height="50" relative="1" as="geometry">
            <mxPoint x="420" y="32.66666666666674" as="sourcePoint" />
            <mxPoint x="460" y="30" as="targetPoint" />
          </mxGeometry>
        </mxCell>
        <mxCell id="uXUEuZgN4HHDqKwv0Y2o-74" value="" style="endArrow=classic;html=1;fontSize=16;entryX=0;entryY=0.5;entryDx=0;entryDy=0;exitX=1;exitY=0.5;exitDx=0;exitDy=0;" parent="uXUEuZgN4HHDqKwv0Y2o-51" source="uXUEuZgN4HHDqKwv0Y2o-67" target="uXUEuZgN4HHDqKwv0Y2o-70" edge="1">
          <mxGeometry width="50" height="50" relative="1" as="geometry">
            <mxPoint x="430" y="42.66666666666674" as="sourcePoint" />
            <mxPoint x="470" y="40" as="targetPoint" />
          </mxGeometry>
        </mxCell>
        <mxCell id="uXUEuZgN4HHDqKwv0Y2o-75" value="" style="endArrow=classic;html=1;fontSize=16;entryX=0;entryY=0.5;entryDx=0;entryDy=0;" parent="uXUEuZgN4HHDqKwv0Y2o-51" target="uXUEuZgN4HHDqKwv0Y2o-70" edge="1">
          <mxGeometry width="50" height="50" relative="1" as="geometry">
            <mxPoint x="510" y="58" as="sourcePoint" />
            <mxPoint x="480" y="50" as="targetPoint" />
          </mxGeometry>
        </mxCell>
        <mxCell id="uXUEuZgN4HHDqKwv0Y2o-76" value="" style="endArrow=classic;html=1;fontSize=16;entryX=0;entryY=0.5;entryDx=0;entryDy=0;exitX=1;exitY=0.5;exitDx=0;exitDy=0;" parent="uXUEuZgN4HHDqKwv0Y2o-51" source="uXUEuZgN4HHDqKwv0Y2o-69" target="uXUEuZgN4HHDqKwv0Y2o-70" edge="1">
          <mxGeometry width="50" height="50" relative="1" as="geometry">
            <mxPoint x="450" y="62.66666666666674" as="sourcePoint" />
            <mxPoint x="490" y="60" as="targetPoint" />
          </mxGeometry>
        </mxCell>
        <mxCell id="uXUEuZgN4HHDqKwv0Y2o-77" value="1" style="rounded=0;whiteSpace=wrap;html=1;fontSize=16;strokeColor=#d6b656;fillColor=#FF8000;" parent="uXUEuZgN4HHDqKwv0Y2o-51" vertex="1">
          <mxGeometry x="650" y="37.5" width="40" height="35" as="geometry" />
        </mxCell>
        <mxCell id="uXUEuZgN4HHDqKwv0Y2o-78" value="2" style="rounded=0;whiteSpace=wrap;html=1;fontSize=16;strokeColor=#d6b656;fillColor=#FFFF99;" parent="uXUEuZgN4HHDqKwv0Y2o-51" vertex="1">
          <mxGeometry x="690" y="37.5" width="20" height="35" as="geometry" />
        </mxCell>
        <mxCell id="uXUEuZgN4HHDqKwv0Y2o-79" value="" style="endArrow=classic;html=1;fontSize=16;entryX=0;entryY=0.5;entryDx=0;entryDy=0;exitX=1;exitY=0.5;exitDx=0;exitDy=0;" parent="uXUEuZgN4HHDqKwv0Y2o-51" source="uXUEuZgN4HHDqKwv0Y2o-70" target="uXUEuZgN4HHDqKwv0Y2o-77" edge="1">
          <mxGeometry width="50" height="50" relative="1" as="geometry">
            <mxPoint x="520" y="220" as="sourcePoint" />
            <mxPoint x="570" y="170" as="targetPoint" />
          </mxGeometry>
        </mxCell>
        <mxCell id="uXUEuZgN4HHDqKwv0Y2o-111" value="" style="endArrow=classic;html=1;fontSize=16;entryX=0;entryY=0.5;entryDx=0;entryDy=0;exitX=1;exitY=0.5;exitDx=0;exitDy=0;" parent="1" source="UFGPYld1FJ---fXv9Qsl-12" target="uXUEuZgN4HHDqKwv0Y2o-54" edge="1">
          <mxGeometry width="50" height="50" relative="1" as="geometry">
            <mxPoint x="420" y="-360" as="sourcePoint" />
            <mxPoint x="470" y="-410" as="targetPoint" />
          </mxGeometry>
        </mxCell>
        <mxCell id="uXUEuZgN4HHDqKwv0Y2o-112" value="" style="endArrow=classic;html=1;fontSize=16;entryX=0;entryY=0.5;entryDx=0;entryDy=0;exitX=1;exitY=0.5;exitDx=0;exitDy=0;" parent="1" source="UFGPYld1FJ---fXv9Qsl-13" target="uXUEuZgN4HHDqKwv0Y2o-84" edge="1">
          <mxGeometry width="50" height="50" relative="1" as="geometry">
            <mxPoint x="420" y="-360" as="sourcePoint" />
            <mxPoint x="470" y="-410" as="targetPoint" />
          </mxGeometry>
        </mxCell>
        <mxCell id="uXUEuZgN4HHDqKwv0Y2o-114" value="3 写数据到磁盘" style="text;html=1;strokeColor=none;fillColor=none;align=center;verticalAlign=middle;whiteSpace=wrap;rounded=0;fontSize=16;" parent="1" vertex="1">
          <mxGeometry x="520" y="-590" width="120" height="20" as="geometry" />
        </mxCell>
        <mxCell id="uXUEuZgN4HHDqKwv0Y2o-116" value="&lt;span style=&quot;font-size: 15px&quot;&gt;调用 Job.setInputFormatClass() 定义的 InputFormat 将数据切成小的 split。&lt;br&gt;切片大小 = Max(minSize, min(maxSize, blockSize));&lt;br&gt;&lt;/span&gt;" style="shape=callout;whiteSpace=wrap;html=1;perimeter=calloutPerimeter;strokeColor=#0000FF;fillColor=#FFFF99;fontSize=15;align=left;size=30;position=0.17;position2=0.48;base=41;" parent="1" vertex="1">
          <mxGeometry x="-270" y="-690" width="230" height="140" as="geometry" />
        </mxCell>
        <mxCell id="uXUEuZgN4HHDqKwv0Y2o-118" value="&lt;span style=&quot;font-size: 15px&quot;&gt;三个参数：&lt;br&gt;1.mapreduce.file.fileInputFormat.split.minsize&lt;br&gt;&lt;/span&gt;2.mapreduce.file.fileInputFormat.split.maxsize&lt;br&gt;&lt;span style=&quot;font-size: 15px&quot;&gt;3.dfs.blockSize&lt;br&gt;&lt;/span&gt;" style="shape=callout;whiteSpace=wrap;html=1;perimeter=calloutPerimeter;strokeColor=#0000FF;fillColor=#FFFF99;fontSize=15;align=left;size=0;position=0.6;position2=0.83;base=130;" parent="1" vertex="1">
          <mxGeometry x="-270" y="-800" width="312.5" height="90" as="geometry" />
        </mxCell>
        <mxCell id="uXUEuZgN4HHDqKwv0Y2o-120" value="&lt;span style=&quot;font-size: 15px&quot;&gt;出现数据倾斜的时候，需要自定义分区函数&lt;br&gt;&lt;/span&gt;" style="shape=callout;whiteSpace=wrap;html=1;perimeter=calloutPerimeter;strokeColor=#0000FF;fillColor=#FFFF99;fontSize=15;align=left;size=0;position=0.6;position2=0.83;base=130;" parent="1" vertex="1">
          <mxGeometry x="60" y="-100" width="312.5" height="40" as="geometry" />
        </mxCell>
        <mxCell id="uXUEuZgN4HHDqKwv0Y2o-82" value="" style="rounded=0;whiteSpace=wrap;html=1;fontSize=16;dashed=1;" parent="1" vertex="1">
          <mxGeometry x="90" y="-270" width="730" height="110" as="geometry" />
        </mxCell>
        <mxCell id="uXUEuZgN4HHDqKwv0Y2o-83" value="" style="edgeStyle=orthogonalEdgeStyle;rounded=0;orthogonalLoop=1;jettySize=auto;html=1;fontSize=16;" parent="1" source="uXUEuZgN4HHDqKwv0Y2o-84" edge="1">
          <mxGeometry relative="1" as="geometry">
            <mxPoint x="240" y="-215" as="targetPoint" />
          </mxGeometry>
        </mxCell>
        <mxCell id="uXUEuZgN4HHDqKwv0Y2o-84" value="Map" style="rounded=0;whiteSpace=wrap;html=1;fillColor=#dae8fc;fontSize=16;strokeColor=#6c8ebf;" parent="1" vertex="1">
          <mxGeometry x="100" y="-245" width="60" height="60" as="geometry" />
        </mxCell>
        <mxCell id="uXUEuZgN4HHDqKwv0Y2o-85" value="partition" style="rounded=0;whiteSpace=wrap;html=1;fillColor=#fff2cc;fontSize=16;strokeColor=#d6b656;" parent="1" vertex="1">
          <mxGeometry x="180" y="-232.5" width="90" height="35" as="geometry" />
        </mxCell>
        <mxCell id="uXUEuZgN4HHDqKwv0Y2o-86" style="edgeStyle=orthogonalEdgeStyle;rounded=0;orthogonalLoop=1;jettySize=auto;html=1;exitX=1;exitY=0.5;exitDx=0;exitDy=0;fontSize=16;" parent="1" source="uXUEuZgN4HHDqKwv0Y2o-84" target="uXUEuZgN4HHDqKwv0Y2o-85" edge="1">
          <mxGeometry relative="1" as="geometry" />
        </mxCell>
        <mxCell id="uXUEuZgN4HHDqKwv0Y2o-87" value="" style="group" parent="1" vertex="1" connectable="0">
          <mxGeometry x="300" y="-255" width="80" height="80" as="geometry" />
        </mxCell>
        <mxCell id="uXUEuZgN4HHDqKwv0Y2o-88" value="" style="ellipse;whiteSpace=wrap;html=1;aspect=fixed;fillColor=#d5e8d4;fontSize=16;strokeColor=#82b366;" parent="uXUEuZgN4HHDqKwv0Y2o-87" vertex="1">
          <mxGeometry width="80" height="80" as="geometry" />
        </mxCell>
        <mxCell id="uXUEuZgN4HHDqKwv0Y2o-89" value="kv buffer" style="ellipse;whiteSpace=wrap;html=1;aspect=fixed;fontSize=16;" parent="uXUEuZgN4HHDqKwv0Y2o-87" vertex="1">
          <mxGeometry x="12.5" y="12.5" width="55" height="55" as="geometry" />
        </mxCell>
        <mxCell id="uXUEuZgN4HHDqKwv0Y2o-90" style="edgeStyle=orthogonalEdgeStyle;rounded=0;orthogonalLoop=1;jettySize=auto;html=1;exitX=1;exitY=0.5;exitDx=0;exitDy=0;entryX=0;entryY=0.5;entryDx=0;entryDy=0;fontSize=16;" parent="1" source="uXUEuZgN4HHDqKwv0Y2o-85" target="uXUEuZgN4HHDqKwv0Y2o-88" edge="1">
          <mxGeometry relative="1" as="geometry" />
        </mxCell>
        <mxCell id="uXUEuZgN4HHDqKwv0Y2o-91" value="sort" style="rounded=1;whiteSpace=wrap;html=1;fontSize=16;fontStyle=0;fillColor=#f8cecc;strokeColor=#b85450;" parent="1" vertex="1">
          <mxGeometry x="420" y="-270" width="70" height="30" as="geometry" />
        </mxCell>
        <mxCell id="uXUEuZgN4HHDqKwv0Y2o-92" value="sort" style="rounded=1;whiteSpace=wrap;html=1;fontSize=16;fontStyle=0;fillColor=#f8cecc;strokeColor=#b85450;" parent="1" vertex="1">
          <mxGeometry x="420" y="-227.5" width="70" height="30" as="geometry" />
        </mxCell>
        <mxCell id="uXUEuZgN4HHDqKwv0Y2o-93" value="sort" style="rounded=1;whiteSpace=wrap;html=1;fontSize=16;fontStyle=0;fillColor=#f8cecc;strokeColor=#b85450;" parent="1" vertex="1">
          <mxGeometry x="420" y="-190" width="70" height="30" as="geometry" />
        </mxCell>
        <mxCell id="uXUEuZgN4HHDqKwv0Y2o-94" value="" style="endArrow=classic;html=1;fontSize=16;" parent="1" edge="1">
          <mxGeometry width="50" height="50" relative="1" as="geometry">
            <mxPoint x="380" y="-220" as="sourcePoint" />
            <mxPoint x="420" y="-260" as="targetPoint" />
          </mxGeometry>
        </mxCell>
        <mxCell id="uXUEuZgN4HHDqKwv0Y2o-95" value="" style="endArrow=classic;html=1;fontSize=16;entryX=0;entryY=0.5;entryDx=0;entryDy=0;exitX=1;exitY=0.5;exitDx=0;exitDy=0;" parent="1" source="uXUEuZgN4HHDqKwv0Y2o-88" target="uXUEuZgN4HHDqKwv0Y2o-92" edge="1">
          <mxGeometry width="50" height="50" relative="1" as="geometry">
            <mxPoint x="390" y="-210" as="sourcePoint" />
            <mxPoint x="430" y="-250" as="targetPoint" />
          </mxGeometry>
        </mxCell>
        <mxCell id="uXUEuZgN4HHDqKwv0Y2o-96" value="" style="endArrow=classic;html=1;fontSize=16;entryX=0;entryY=0.5;entryDx=0;entryDy=0;exitX=1;exitY=0.5;exitDx=0;exitDy=0;" parent="1" source="uXUEuZgN4HHDqKwv0Y2o-88" target="uXUEuZgN4HHDqKwv0Y2o-93" edge="1">
          <mxGeometry width="50" height="50" relative="1" as="geometry">
            <mxPoint x="400" y="-200" as="sourcePoint" />
            <mxPoint x="440" y="-240" as="targetPoint" />
          </mxGeometry>
        </mxCell>
        <mxCell id="uXUEuZgN4HHDqKwv0Y2o-97" value="spill" style="rounded=1;whiteSpace=wrap;html=1;fontSize=16;fontStyle=0;strokeColor=#666666;fontColor=#333333;fillColor=#DEDEDE;" parent="1" vertex="1">
          <mxGeometry x="530" y="-270" width="70" height="30" as="geometry" />
        </mxCell>
        <mxCell id="uXUEuZgN4HHDqKwv0Y2o-98" value="spill" style="rounded=1;whiteSpace=wrap;html=1;fontSize=16;fontStyle=0;strokeColor=#666666;fontColor=#333333;fillColor=#DEDEDE;" parent="1" vertex="1">
          <mxGeometry x="530" y="-227.5" width="70" height="30" as="geometry" />
        </mxCell>
        <mxCell id="uXUEuZgN4HHDqKwv0Y2o-99" value="spill" style="rounded=1;whiteSpace=wrap;html=1;fontSize=16;fontStyle=0;strokeColor=#666666;fontColor=#333333;fillColor=#DEDEDE;" parent="1" vertex="1">
          <mxGeometry x="530" y="-190" width="70" height="30" as="geometry" />
        </mxCell>
        <mxCell id="uXUEuZgN4HHDqKwv0Y2o-100" value="Merge" style="rounded=1;whiteSpace=wrap;html=1;fontSize=16;fontStyle=0;strokeColor=#666666;fontColor=#333333;fillColor=#999999;" parent="1" vertex="1">
          <mxGeometry x="640" y="-227.5" width="70" height="30" as="geometry" />
        </mxCell>
        <mxCell id="uXUEuZgN4HHDqKwv0Y2o-101" value="" style="endArrow=classic;html=1;fontSize=16;" parent="1" source="uXUEuZgN4HHDqKwv0Y2o-91" edge="1">
          <mxGeometry width="50" height="50" relative="1" as="geometry">
            <mxPoint x="480" y="-210" as="sourcePoint" />
            <mxPoint x="530" y="-260" as="targetPoint" />
          </mxGeometry>
        </mxCell>
        <mxCell id="uXUEuZgN4HHDqKwv0Y2o-102" value="" style="endArrow=classic;html=1;fontSize=16;exitX=1;exitY=0.5;exitDx=0;exitDy=0;entryX=0;entryY=0.5;entryDx=0;entryDy=0;" parent="1" source="uXUEuZgN4HHDqKwv0Y2o-92" target="uXUEuZgN4HHDqKwv0Y2o-98" edge="1">
          <mxGeometry width="50" height="50" relative="1" as="geometry">
            <mxPoint x="500" y="-247.33333333333326" as="sourcePoint" />
            <mxPoint x="540" y="-250" as="targetPoint" />
          </mxGeometry>
        </mxCell>
        <mxCell id="uXUEuZgN4HHDqKwv0Y2o-103" value="" style="endArrow=classic;html=1;fontSize=16;entryX=0;entryY=0.5;entryDx=0;entryDy=0;exitX=1;exitY=0.5;exitDx=0;exitDy=0;" parent="1" source="uXUEuZgN4HHDqKwv0Y2o-93" target="uXUEuZgN4HHDqKwv0Y2o-99" edge="1">
          <mxGeometry width="50" height="50" relative="1" as="geometry">
            <mxPoint x="510" y="-237.33333333333326" as="sourcePoint" />
            <mxPoint x="550" y="-240" as="targetPoint" />
          </mxGeometry>
        </mxCell>
        <mxCell id="uXUEuZgN4HHDqKwv0Y2o-104" value="" style="endArrow=classic;html=1;fontSize=16;entryX=0;entryY=0.5;entryDx=0;entryDy=0;exitX=1;exitY=0.5;exitDx=0;exitDy=0;" parent="1" source="uXUEuZgN4HHDqKwv0Y2o-97" target="uXUEuZgN4HHDqKwv0Y2o-100" edge="1">
          <mxGeometry width="50" height="50" relative="1" as="geometry">
            <mxPoint x="520" y="-227.33333333333326" as="sourcePoint" />
            <mxPoint x="560" y="-230" as="targetPoint" />
          </mxGeometry>
        </mxCell>
        <mxCell id="uXUEuZgN4HHDqKwv0Y2o-105" value="" style="endArrow=classic;html=1;fontSize=16;entryX=0;entryY=0.5;entryDx=0;entryDy=0;" parent="1" target="uXUEuZgN4HHDqKwv0Y2o-100" edge="1">
          <mxGeometry width="50" height="50" relative="1" as="geometry">
            <mxPoint x="600" y="-212" as="sourcePoint" />
            <mxPoint x="570" y="-220" as="targetPoint" />
          </mxGeometry>
        </mxCell>
        <mxCell id="uXUEuZgN4HHDqKwv0Y2o-106" value="" style="endArrow=classic;html=1;fontSize=16;entryX=0;entryY=0.5;entryDx=0;entryDy=0;exitX=1;exitY=0.5;exitDx=0;exitDy=0;" parent="1" source="uXUEuZgN4HHDqKwv0Y2o-99" target="uXUEuZgN4HHDqKwv0Y2o-100" edge="1">
          <mxGeometry width="50" height="50" relative="1" as="geometry">
            <mxPoint x="540" y="-207.33333333333326" as="sourcePoint" />
            <mxPoint x="580" y="-210" as="targetPoint" />
          </mxGeometry>
        </mxCell>
        <mxCell id="uXUEuZgN4HHDqKwv0Y2o-230" style="edgeStyle=orthogonalEdgeStyle;curved=1;rounded=0;orthogonalLoop=1;jettySize=auto;html=1;exitX=0.75;exitY=0;exitDx=0;exitDy=0;strokeWidth=2;fontSize=15;fontColor=#000000;strokeColor=#FF8000;" parent="1" source="uXUEuZgN4HHDqKwv0Y2o-107" edge="1">
          <mxGeometry relative="1" as="geometry">
            <mxPoint x="890" y="-480" as="targetPoint" />
            <Array as="points">
              <mxPoint x="763" y="-480" />
            </Array>
          </mxGeometry>
        </mxCell>
        <mxCell id="uXUEuZgN4HHDqKwv0Y2o-107" value="1" style="rounded=0;whiteSpace=wrap;html=1;fontSize=16;strokeColor=#d6b656;fillColor=#FF8000;" parent="1" vertex="1">
          <mxGeometry x="740" y="-232.5" width="30" height="35" as="geometry" />
        </mxCell>
        <mxCell id="uXUEuZgN4HHDqKwv0Y2o-233" style="edgeStyle=orthogonalEdgeStyle;curved=1;rounded=0;orthogonalLoop=1;jettySize=auto;html=1;exitX=1;exitY=0.5;exitDx=0;exitDy=0;strokeWidth=2;fontSize=15;fontColor=#000000;strokeColor=#999900;" parent="1" source="uXUEuZgN4HHDqKwv0Y2o-108" edge="1">
          <mxGeometry relative="1" as="geometry">
            <mxPoint x="890" y="-270" as="targetPoint" />
            <Array as="points">
              <mxPoint x="800" y="-270" />
            </Array>
          </mxGeometry>
        </mxCell>
        <mxCell id="uXUEuZgN4HHDqKwv0Y2o-108" value="2" style="rounded=0;whiteSpace=wrap;html=1;fontSize=16;strokeColor=#d6b656;fillColor=#FFFF99;" parent="1" vertex="1">
          <mxGeometry x="770" y="-232.5" width="30" height="35" as="geometry" />
        </mxCell>
        <mxCell id="uXUEuZgN4HHDqKwv0Y2o-109" value="" style="endArrow=classic;html=1;fontSize=16;entryX=0;entryY=0.5;entryDx=0;entryDy=0;exitX=1;exitY=0.5;exitDx=0;exitDy=0;" parent="1" source="uXUEuZgN4HHDqKwv0Y2o-100" target="uXUEuZgN4HHDqKwv0Y2o-107" edge="1">
          <mxGeometry width="50" height="50" relative="1" as="geometry">
            <mxPoint x="610" y="-50" as="sourcePoint" />
            <mxPoint x="660" y="-100" as="targetPoint" />
          </mxGeometry>
        </mxCell>
        <mxCell id="uXUEuZgN4HHDqKwv0Y2o-121" value="" style="shape=flexArrow;endArrow=classic;html=1;fontSize=15;exitX=0.576;exitY=0;exitDx=0;exitDy=0;exitPerimeter=0;" parent="1" source="uXUEuZgN4HHDqKwv0Y2o-120" edge="1">
          <mxGeometry width="50" height="50" relative="1" as="geometry">
            <mxPoint x="180" y="-140" as="sourcePoint" />
            <mxPoint x="230" y="-190" as="targetPoint" />
          </mxGeometry>
        </mxCell>
        <mxCell id="uXUEuZgN4HHDqKwv0Y2o-124" value="&lt;span style=&quot;font-size: 15px&quot;&gt;1. 对于不需要排序的情况，可以自定义排序规则，让&lt;b&gt;&lt;font color=&quot;#ff3333&quot;&gt;二叉树&lt;/font&gt;&lt;/b&gt;结构尽量简单&lt;br&gt;2. 尽量让 spill 文件数量少一些，可以减少 io 操作，可通过&lt;b&gt;&lt;font color=&quot;#ff3333&quot;&gt;环形缓冲区&lt;/font&gt;&lt;/b&gt;参数配置：&lt;br&gt;mapreduce.task.io.sort.mb [1024M]&lt;br&gt;mapreduce.map.sort.spill.percent [0.8]&lt;br&gt;3. 可以合并的就尽量 combine，减少键值对&lt;br&gt;&lt;/span&gt;" style="shape=callout;whiteSpace=wrap;html=1;perimeter=calloutPerimeter;strokeColor=#0000FF;fillColor=#FFFF99;fontSize=15;align=left;size=0;position=0.6;position2=0.83;base=130;" parent="1" vertex="1">
          <mxGeometry x="70" y="-800" width="350" height="130" as="geometry" />
        </mxCell>
        <mxCell id="uXUEuZgN4HHDqKwv0Y2o-125" value="" style="shape=flexArrow;endArrow=classic;html=1;fontSize=15;entryX=0;entryY=0;entryDx=0;entryDy=0;" parent="1" target="uXUEuZgN4HHDqKwv0Y2o-122" edge="1">
          <mxGeometry width="50" height="50" relative="1" as="geometry">
            <mxPoint x="361" y="-670" as="sourcePoint" />
            <mxPoint x="480" y="-720" as="targetPoint" />
          </mxGeometry>
        </mxCell>
        <mxCell id="uXUEuZgN4HHDqKwv0Y2o-127" value="" style="rounded=0;whiteSpace=wrap;html=1;fontSize=16;fillColor=none;" parent="1" vertex="1">
          <mxGeometry x="517" y="-565" width="200" height="155" as="geometry" />
        </mxCell>
        <mxCell id="uXUEuZgN4HHDqKwv0Y2o-128" value="&lt;span style=&quot;font-size: 15px&quot;&gt;一次性尽量合并多个 spill，配置参数：&lt;br&gt;mapreduce.task.io.sort.factor&lt;br&gt;&lt;/span&gt;" style="shape=callout;whiteSpace=wrap;html=1;perimeter=calloutPerimeter;strokeColor=#0000FF;fillColor=#FFFF99;fontSize=15;align=left;size=0;position=0.6;position2=0.83;base=130;" parent="1" vertex="1">
          <mxGeometry x="440" y="-800" width="260" height="50" as="geometry" />
        </mxCell>
        <mxCell id="uXUEuZgN4HHDqKwv0Y2o-130" value="" style="shape=flexArrow;endArrow=classic;html=1;fontSize=15;entryX=0.75;entryY=0;entryDx=0;entryDy=0;" parent="1" target="uXUEuZgN4HHDqKwv0Y2o-127" edge="1">
          <mxGeometry width="50" height="50" relative="1" as="geometry">
            <mxPoint x="610" y="-750" as="sourcePoint" />
            <mxPoint x="659" y="-635" as="targetPoint" />
          </mxGeometry>
        </mxCell>
        <mxCell id="uXUEuZgN4HHDqKwv0Y2o-132" value="Reduce 阶段" style="text;html=1;strokeColor=none;fillColor=none;align=center;verticalAlign=middle;whiteSpace=wrap;rounded=0;fontSize=20;fontStyle=1" parent="1" vertex="1">
          <mxGeometry x="1230" y="-640" width="130" height="40" as="geometry" />
        </mxCell>
        <mxCell id="uXUEuZgN4HHDqKwv0Y2o-188" style="rounded=0;orthogonalLoop=1;jettySize=auto;html=1;exitX=1;exitY=0.25;exitDx=0;exitDy=0;entryX=0;entryY=0.5;entryDx=0;entryDy=0;strokeWidth=1;fontSize=15;fontColor=#FF3333;" parent="1" source="uXUEuZgN4HHDqKwv0Y2o-133" target="uXUEuZgN4HHDqKwv0Y2o-143" edge="1">
          <mxGeometry relative="1" as="geometry" />
        </mxCell>
        <mxCell id="uXUEuZgN4HHDqKwv0Y2o-189" style="edgeStyle=none;rounded=0;orthogonalLoop=1;jettySize=auto;html=1;exitX=1;exitY=0.25;exitDx=0;exitDy=0;strokeWidth=1;fontSize=15;fontColor=#FF3333;" parent="1" source="uXUEuZgN4HHDqKwv0Y2o-133" target="uXUEuZgN4HHDqKwv0Y2o-144" edge="1">
          <mxGeometry relative="1" as="geometry" />
        </mxCell>
        <mxCell id="uXUEuZgN4HHDqKwv0Y2o-190" style="edgeStyle=none;rounded=0;orthogonalLoop=1;jettySize=auto;html=1;exitX=1;exitY=0.25;exitDx=0;exitDy=0;strokeWidth=1;fontSize=15;fontColor=#FF3333;" parent="1" source="uXUEuZgN4HHDqKwv0Y2o-133" target="uXUEuZgN4HHDqKwv0Y2o-151" edge="1">
          <mxGeometry relative="1" as="geometry" />
        </mxCell>
        <mxCell id="uXUEuZgN4HHDqKwv0Y2o-191" style="edgeStyle=none;rounded=0;orthogonalLoop=1;jettySize=auto;html=1;exitX=1;exitY=0.5;exitDx=0;exitDy=0;strokeWidth=1;fontSize=15;fontColor=#FF3333;" parent="1" source="uXUEuZgN4HHDqKwv0Y2o-133" target="uXUEuZgN4HHDqKwv0Y2o-150" edge="1">
          <mxGeometry relative="1" as="geometry" />
        </mxCell>
        <mxCell id="uXUEuZgN4HHDqKwv0Y2o-192" style="edgeStyle=none;rounded=0;orthogonalLoop=1;jettySize=auto;html=1;exitX=1;exitY=0.5;exitDx=0;exitDy=0;entryX=0;entryY=0.5;entryDx=0;entryDy=0;strokeWidth=1;fontSize=15;fontColor=#FF3333;" parent="1" source="uXUEuZgN4HHDqKwv0Y2o-133" target="uXUEuZgN4HHDqKwv0Y2o-145" edge="1">
          <mxGeometry relative="1" as="geometry" />
        </mxCell>
        <mxCell id="uXUEuZgN4HHDqKwv0Y2o-193" style="edgeStyle=none;rounded=0;orthogonalLoop=1;jettySize=auto;html=1;exitX=1;exitY=0.5;exitDx=0;exitDy=0;entryX=0;entryY=0.75;entryDx=0;entryDy=0;strokeWidth=1;fontSize=15;fontColor=#FF3333;" parent="1" source="uXUEuZgN4HHDqKwv0Y2o-133" target="uXUEuZgN4HHDqKwv0Y2o-146" edge="1">
          <mxGeometry relative="1" as="geometry" />
        </mxCell>
        <mxCell id="uXUEuZgN4HHDqKwv0Y2o-194" style="edgeStyle=none;rounded=0;orthogonalLoop=1;jettySize=auto;html=1;exitX=1;exitY=0.5;exitDx=0;exitDy=0;entryX=0;entryY=0.75;entryDx=0;entryDy=0;strokeWidth=1;fontSize=15;fontColor=#FF3333;" parent="1" source="uXUEuZgN4HHDqKwv0Y2o-133" target="uXUEuZgN4HHDqKwv0Y2o-147" edge="1">
          <mxGeometry relative="1" as="geometry" />
        </mxCell>
        <mxCell id="uXUEuZgN4HHDqKwv0Y2o-195" style="edgeStyle=none;rounded=0;orthogonalLoop=1;jettySize=auto;html=1;exitX=1;exitY=0.75;exitDx=0;exitDy=0;entryX=0;entryY=0.5;entryDx=0;entryDy=0;strokeWidth=1;fontSize=15;fontColor=#FF3333;" parent="1" source="uXUEuZgN4HHDqKwv0Y2o-133" target="uXUEuZgN4HHDqKwv0Y2o-162" edge="1">
          <mxGeometry relative="1" as="geometry" />
        </mxCell>
        <mxCell id="uXUEuZgN4HHDqKwv0Y2o-196" style="edgeStyle=none;rounded=0;orthogonalLoop=1;jettySize=auto;html=1;exitX=1;exitY=0.75;exitDx=0;exitDy=0;entryX=0;entryY=0.75;entryDx=0;entryDy=0;strokeWidth=1;fontSize=15;fontColor=#FF3333;" parent="1" source="uXUEuZgN4HHDqKwv0Y2o-133" target="uXUEuZgN4HHDqKwv0Y2o-164" edge="1">
          <mxGeometry relative="1" as="geometry" />
        </mxCell>
        <mxCell id="uXUEuZgN4HHDqKwv0Y2o-197" style="edgeStyle=none;rounded=0;orthogonalLoop=1;jettySize=auto;html=1;exitX=1;exitY=0.75;exitDx=0;exitDy=0;entryX=0;entryY=0.75;entryDx=0;entryDy=0;strokeWidth=1;fontSize=15;fontColor=#FF3333;" parent="1" source="uXUEuZgN4HHDqKwv0Y2o-133" target="uXUEuZgN4HHDqKwv0Y2o-165" edge="1">
          <mxGeometry relative="1" as="geometry" />
        </mxCell>
        <mxCell id="uXUEuZgN4HHDqKwv0Y2o-133" value="缓存&lt;br&gt;（2）&lt;br&gt;sort&lt;br&gt;merge" style="rounded=0;whiteSpace=wrap;html=1;fontSize=16;strokeColor=#d6b656;fillColor=#FF8000;" parent="1" vertex="1">
          <mxGeometry x="900" y="-590" width="100" height="150" as="geometry" />
        </mxCell>
        <mxCell id="uXUEuZgN4HHDqKwv0Y2o-198" style="edgeStyle=none;rounded=0;orthogonalLoop=1;jettySize=auto;html=1;exitX=1;exitY=0.25;exitDx=0;exitDy=0;entryX=0;entryY=0.5;entryDx=0;entryDy=0;strokeWidth=1;fontSize=15;fontColor=#FF3333;" parent="1" source="uXUEuZgN4HHDqKwv0Y2o-134" target="uXUEuZgN4HHDqKwv0Y2o-155" edge="1">
          <mxGeometry relative="1" as="geometry" />
        </mxCell>
        <mxCell id="uXUEuZgN4HHDqKwv0Y2o-199" style="edgeStyle=none;rounded=0;orthogonalLoop=1;jettySize=auto;html=1;exitX=1;exitY=0.25;exitDx=0;exitDy=0;entryX=0;entryY=0.5;entryDx=0;entryDy=0;strokeWidth=1;fontSize=15;fontColor=#FF3333;" parent="1" source="uXUEuZgN4HHDqKwv0Y2o-134" target="uXUEuZgN4HHDqKwv0Y2o-156" edge="1">
          <mxGeometry relative="1" as="geometry" />
        </mxCell>
        <mxCell id="uXUEuZgN4HHDqKwv0Y2o-200" style="edgeStyle=none;rounded=0;orthogonalLoop=1;jettySize=auto;html=1;exitX=1;exitY=0.25;exitDx=0;exitDy=0;entryX=0;entryY=0.5;entryDx=0;entryDy=0;strokeWidth=1;fontSize=15;fontColor=#FF3333;" parent="1" source="uXUEuZgN4HHDqKwv0Y2o-134" target="uXUEuZgN4HHDqKwv0Y2o-157" edge="1">
          <mxGeometry relative="1" as="geometry" />
        </mxCell>
        <mxCell id="uXUEuZgN4HHDqKwv0Y2o-201" style="edgeStyle=none;rounded=0;orthogonalLoop=1;jettySize=auto;html=1;exitX=1;exitY=0.5;exitDx=0;exitDy=0;strokeWidth=1;fontSize=15;fontColor=#FF3333;" parent="1" source="uXUEuZgN4HHDqKwv0Y2o-134" target="uXUEuZgN4HHDqKwv0Y2o-161" edge="1">
          <mxGeometry relative="1" as="geometry" />
        </mxCell>
        <mxCell id="uXUEuZgN4HHDqKwv0Y2o-202" style="edgeStyle=none;rounded=0;orthogonalLoop=1;jettySize=auto;html=1;exitX=1;exitY=0.5;exitDx=0;exitDy=0;entryX=0;entryY=0.5;entryDx=0;entryDy=0;strokeWidth=1;fontSize=15;fontColor=#FF3333;" parent="1" source="uXUEuZgN4HHDqKwv0Y2o-134" target="uXUEuZgN4HHDqKwv0Y2o-158" edge="1">
          <mxGeometry relative="1" as="geometry" />
        </mxCell>
        <mxCell id="uXUEuZgN4HHDqKwv0Y2o-203" style="edgeStyle=none;rounded=0;orthogonalLoop=1;jettySize=auto;html=1;exitX=1;exitY=0.5;exitDx=0;exitDy=0;entryX=0;entryY=0.5;entryDx=0;entryDy=0;strokeWidth=1;fontSize=15;fontColor=#FF3333;" parent="1" source="uXUEuZgN4HHDqKwv0Y2o-134" target="uXUEuZgN4HHDqKwv0Y2o-159" edge="1">
          <mxGeometry relative="1" as="geometry" />
        </mxCell>
        <mxCell id="uXUEuZgN4HHDqKwv0Y2o-204" style="edgeStyle=none;rounded=0;orthogonalLoop=1;jettySize=auto;html=1;exitX=1;exitY=0.5;exitDx=0;exitDy=0;entryX=0;entryY=0.75;entryDx=0;entryDy=0;strokeWidth=1;fontSize=15;fontColor=#FF3333;" parent="1" source="uXUEuZgN4HHDqKwv0Y2o-134" target="uXUEuZgN4HHDqKwv0Y2o-160" edge="1">
          <mxGeometry relative="1" as="geometry" />
        </mxCell>
        <mxCell id="uXUEuZgN4HHDqKwv0Y2o-205" style="edgeStyle=none;rounded=0;orthogonalLoop=1;jettySize=auto;html=1;exitX=1;exitY=0.75;exitDx=0;exitDy=0;entryX=0;entryY=0.5;entryDx=0;entryDy=0;strokeWidth=1;fontSize=15;fontColor=#FF3333;" parent="1" source="uXUEuZgN4HHDqKwv0Y2o-134" target="uXUEuZgN4HHDqKwv0Y2o-166" edge="1">
          <mxGeometry relative="1" as="geometry" />
        </mxCell>
        <mxCell id="uXUEuZgN4HHDqKwv0Y2o-206" style="edgeStyle=none;rounded=0;orthogonalLoop=1;jettySize=auto;html=1;exitX=1;exitY=0.75;exitDx=0;exitDy=0;entryX=0;entryY=0.5;entryDx=0;entryDy=0;strokeWidth=1;fontSize=15;fontColor=#FF3333;" parent="1" source="uXUEuZgN4HHDqKwv0Y2o-134" target="uXUEuZgN4HHDqKwv0Y2o-167" edge="1">
          <mxGeometry relative="1" as="geometry" />
        </mxCell>
        <mxCell id="uXUEuZgN4HHDqKwv0Y2o-207" style="edgeStyle=none;rounded=0;orthogonalLoop=1;jettySize=auto;html=1;exitX=1;exitY=0.75;exitDx=0;exitDy=0;entryX=0;entryY=0.75;entryDx=0;entryDy=0;strokeWidth=1;fontSize=15;fontColor=#FF3333;" parent="1" source="uXUEuZgN4HHDqKwv0Y2o-134" target="uXUEuZgN4HHDqKwv0Y2o-168" edge="1">
          <mxGeometry relative="1" as="geometry" />
        </mxCell>
        <mxCell id="uXUEuZgN4HHDqKwv0Y2o-134" value="缓存&lt;br&gt;（2）&lt;br&gt;sort&lt;br&gt;merge" style="rounded=0;whiteSpace=wrap;html=1;fontSize=16;strokeColor=#d6b656;fillColor=#FFFF99;" parent="1" vertex="1">
          <mxGeometry x="900" y="-310" width="100" height="150" as="geometry" />
        </mxCell>
        <mxCell id="uXUEuZgN4HHDqKwv0Y2o-135" value="内存" style="rounded=0;whiteSpace=wrap;html=1;fontSize=16;strokeColor=#6c8ebf;fillColor=#66B2FF;" parent="1" vertex="1">
          <mxGeometry x="910" y="-390" width="80" height="40" as="geometry" />
        </mxCell>
        <mxCell id="uXUEuZgN4HHDqKwv0Y2o-136" value="内存" style="rounded=0;whiteSpace=wrap;html=1;fontSize=16;strokeColor=#6c8ebf;fillColor=#66B2FF;" parent="1" vertex="1">
          <mxGeometry x="910" y="-110" width="80" height="40" as="geometry" />
        </mxCell>
        <mxCell id="uXUEuZgN4HHDqKwv0Y2o-137" value="" style="endArrow=classic;startArrow=classic;html=1;fontSize=15;entryX=0.5;entryY=1;entryDx=0;entryDy=0;strokeWidth=2;" parent="1" source="uXUEuZgN4HHDqKwv0Y2o-136" target="uXUEuZgN4HHDqKwv0Y2o-134" edge="1">
          <mxGeometry width="50" height="50" relative="1" as="geometry">
            <mxPoint x="850" y="70" as="sourcePoint" />
            <mxPoint x="900" y="20" as="targetPoint" />
          </mxGeometry>
        </mxCell>
        <mxCell id="uXUEuZgN4HHDqKwv0Y2o-139" value="" style="endArrow=classic;startArrow=classic;html=1;fontSize=15;strokeWidth=2;exitX=0.5;exitY=0;exitDx=0;exitDy=0;" parent="1" source="uXUEuZgN4HHDqKwv0Y2o-135" target="uXUEuZgN4HHDqKwv0Y2o-133" edge="1">
          <mxGeometry width="50" height="50" relative="1" as="geometry">
            <mxPoint x="950" y="-100" as="sourcePoint" />
            <mxPoint x="950" y="-150" as="targetPoint" />
          </mxGeometry>
        </mxCell>
        <mxCell id="uXUEuZgN4HHDqKwv0Y2o-140" value="（1）内存&amp;nbsp; 到内存 merge" style="text;html=1;strokeColor=none;fillColor=none;align=center;verticalAlign=middle;whiteSpace=wrap;rounded=0;fontSize=15;fontColor=#FF3333;" parent="1" vertex="1">
          <mxGeometry x="862" y="-145" width="198" height="20" as="geometry" />
        </mxCell>
        <mxCell id="uXUEuZgN4HHDqKwv0Y2o-142" value="（1）内存&amp;nbsp; 到内存 merge" style="text;html=1;strokeColor=none;fillColor=none;align=center;verticalAlign=middle;whiteSpace=wrap;rounded=0;fontSize=15;fontColor=#FF3333;" parent="1" vertex="1">
          <mxGeometry x="862" y="-422.5" width="198" height="20" as="geometry" />
        </mxCell>
        <mxCell id="uXUEuZgN4HHDqKwv0Y2o-145" value="spill" style="rounded=1;whiteSpace=wrap;html=1;fontSize=16;fontStyle=0;strokeColor=#666666;fontColor=#333333;fillColor=#DEDEDE;" parent="1" vertex="1">
          <mxGeometry x="1080" y="-490" width="70" height="20" as="geometry" />
        </mxCell>
        <mxCell id="uXUEuZgN4HHDqKwv0Y2o-146" value="spill" style="rounded=1;whiteSpace=wrap;html=1;fontSize=16;fontStyle=0;strokeColor=#666666;fontColor=#333333;fillColor=#DEDEDE;" parent="1" vertex="1">
          <mxGeometry x="1080" y="-470" width="70" height="20" as="geometry" />
        </mxCell>
        <mxCell id="uXUEuZgN4HHDqKwv0Y2o-179" style="edgeStyle=orthogonalEdgeStyle;rounded=0;orthogonalLoop=1;jettySize=auto;html=1;exitX=1;exitY=1;exitDx=0;exitDy=0;entryX=0;entryY=1;entryDx=0;entryDy=0;strokeWidth=1;fontSize=15;fontColor=#FF3333;dashed=1;" parent="1" source="uXUEuZgN4HHDqKwv0Y2o-147" target="uXUEuZgN4HHDqKwv0Y2o-170" edge="1">
          <mxGeometry relative="1" as="geometry">
            <Array as="points">
              <mxPoint x="1190" y="-430" />
              <mxPoint x="1190" y="-430" />
            </Array>
          </mxGeometry>
        </mxCell>
        <mxCell id="uXUEuZgN4HHDqKwv0Y2o-147" value="spill" style="rounded=1;whiteSpace=wrap;html=1;fontSize=16;fontStyle=0;strokeColor=#666666;fontColor=#333333;fillColor=#DEDEDE;" parent="1" vertex="1">
          <mxGeometry x="1080" y="-450" width="70" height="20" as="geometry" />
        </mxCell>
        <mxCell id="uXUEuZgN4HHDqKwv0Y2o-178" style="edgeStyle=orthogonalEdgeStyle;rounded=0;orthogonalLoop=1;jettySize=auto;html=1;exitX=1;exitY=0;exitDx=0;exitDy=0;entryX=0;entryY=0;entryDx=0;entryDy=0;strokeWidth=1;fontSize=15;fontColor=#FF3333;dashed=1;" parent="1" source="uXUEuZgN4HHDqKwv0Y2o-150" target="uXUEuZgN4HHDqKwv0Y2o-170" edge="1">
          <mxGeometry relative="1" as="geometry">
            <Array as="points">
              <mxPoint x="1190" y="-510" />
              <mxPoint x="1190" y="-510" />
            </Array>
          </mxGeometry>
        </mxCell>
        <mxCell id="uXUEuZgN4HHDqKwv0Y2o-150" value="spill" style="rounded=1;whiteSpace=wrap;html=1;fontSize=16;fontStyle=0;strokeColor=#666666;fontColor=#333333;fillColor=#DEDEDE;" parent="1" vertex="1">
          <mxGeometry x="1080" y="-510" width="70" height="20" as="geometry" />
        </mxCell>
        <mxCell id="uXUEuZgN4HHDqKwv0Y2o-152" value="" style="group" parent="1" vertex="1" connectable="0">
          <mxGeometry x="1080" y="-590" width="70" height="60" as="geometry" />
        </mxCell>
        <mxCell id="uXUEuZgN4HHDqKwv0Y2o-143" value="spill" style="rounded=1;whiteSpace=wrap;html=1;fontSize=16;fontStyle=0;strokeColor=#666666;fontColor=#333333;fillColor=#DEDEDE;" parent="uXUEuZgN4HHDqKwv0Y2o-152" vertex="1">
          <mxGeometry width="70" height="20" as="geometry" />
        </mxCell>
        <mxCell id="uXUEuZgN4HHDqKwv0Y2o-144" value="spill" style="rounded=1;whiteSpace=wrap;html=1;fontSize=16;fontStyle=0;strokeColor=#666666;fontColor=#333333;fillColor=#DEDEDE;" parent="uXUEuZgN4HHDqKwv0Y2o-152" vertex="1">
          <mxGeometry y="20" width="70" height="20" as="geometry" />
        </mxCell>
        <mxCell id="uXUEuZgN4HHDqKwv0Y2o-151" value="spill" style="rounded=1;whiteSpace=wrap;html=1;fontSize=16;fontStyle=0;strokeColor=#666666;fontColor=#333333;fillColor=#DEDEDE;" parent="uXUEuZgN4HHDqKwv0Y2o-152" vertex="1">
          <mxGeometry y="40" width="70" height="20" as="geometry" />
        </mxCell>
        <mxCell id="uXUEuZgN4HHDqKwv0Y2o-154" value="" style="group" parent="1" vertex="1" connectable="0">
          <mxGeometry x="1080" y="-320" width="70" height="60" as="geometry" />
        </mxCell>
        <mxCell id="uXUEuZgN4HHDqKwv0Y2o-155" value="spill" style="rounded=1;whiteSpace=wrap;html=1;fontSize=16;fontStyle=0;strokeColor=#666666;fontColor=#333333;fillColor=#DEDEDE;" parent="uXUEuZgN4HHDqKwv0Y2o-154" vertex="1">
          <mxGeometry width="70" height="20" as="geometry" />
        </mxCell>
        <mxCell id="uXUEuZgN4HHDqKwv0Y2o-156" value="spill" style="rounded=1;whiteSpace=wrap;html=1;fontSize=16;fontStyle=0;strokeColor=#666666;fontColor=#333333;fillColor=#DEDEDE;" parent="uXUEuZgN4HHDqKwv0Y2o-154" vertex="1">
          <mxGeometry y="20" width="70" height="20" as="geometry" />
        </mxCell>
        <mxCell id="uXUEuZgN4HHDqKwv0Y2o-157" value="spill" style="rounded=1;whiteSpace=wrap;html=1;fontSize=16;fontStyle=0;strokeColor=#666666;fontColor=#333333;fillColor=#DEDEDE;" parent="uXUEuZgN4HHDqKwv0Y2o-154" vertex="1">
          <mxGeometry y="40" width="70" height="20" as="geometry" />
        </mxCell>
        <mxCell id="uXUEuZgN4HHDqKwv0Y2o-158" value="spill" style="rounded=1;whiteSpace=wrap;html=1;fontSize=16;fontStyle=0;strokeColor=#666666;fontColor=#333333;fillColor=#DEDEDE;" parent="1" vertex="1">
          <mxGeometry x="1080" y="-220" width="70" height="20" as="geometry" />
        </mxCell>
        <mxCell id="uXUEuZgN4HHDqKwv0Y2o-159" value="spill" style="rounded=1;whiteSpace=wrap;html=1;fontSize=16;fontStyle=0;strokeColor=#666666;fontColor=#333333;fillColor=#DEDEDE;" parent="1" vertex="1">
          <mxGeometry x="1080" y="-200" width="70" height="20" as="geometry" />
        </mxCell>
        <mxCell id="uXUEuZgN4HHDqKwv0Y2o-177" style="edgeStyle=orthogonalEdgeStyle;rounded=0;orthogonalLoop=1;jettySize=auto;html=1;exitX=1;exitY=1;exitDx=0;exitDy=0;entryX=0;entryY=1;entryDx=0;entryDy=0;strokeWidth=1;fontSize=15;fontColor=#FF3333;dashed=1;" parent="1" source="uXUEuZgN4HHDqKwv0Y2o-160" target="uXUEuZgN4HHDqKwv0Y2o-172" edge="1">
          <mxGeometry relative="1" as="geometry">
            <Array as="points">
              <mxPoint x="1190" y="-160" />
              <mxPoint x="1190" y="-160" />
            </Array>
          </mxGeometry>
        </mxCell>
        <mxCell id="uXUEuZgN4HHDqKwv0Y2o-160" value="spill" style="rounded=1;whiteSpace=wrap;html=1;fontSize=16;fontStyle=0;strokeColor=#666666;fontColor=#333333;fillColor=#DEDEDE;" parent="1" vertex="1">
          <mxGeometry x="1080" y="-180" width="70" height="20" as="geometry" />
        </mxCell>
        <mxCell id="uXUEuZgN4HHDqKwv0Y2o-161" value="spill" style="rounded=1;whiteSpace=wrap;html=1;fontSize=16;fontStyle=0;strokeColor=#666666;fontColor=#333333;fillColor=#DEDEDE;" parent="1" vertex="1">
          <mxGeometry x="1080" y="-240" width="70" height="20" as="geometry" />
        </mxCell>
        <mxCell id="uXUEuZgN4HHDqKwv0Y2o-162" value="spill" style="rounded=1;whiteSpace=wrap;html=1;fontSize=16;fontStyle=0;strokeColor=#666666;fontColor=#333333;fillColor=#DEDEDE;" parent="1" vertex="1">
          <mxGeometry x="1080" y="-410" width="70" height="20" as="geometry" />
        </mxCell>
        <mxCell id="uXUEuZgN4HHDqKwv0Y2o-164" value="spill" style="rounded=1;whiteSpace=wrap;html=1;fontSize=16;strokeColor=#d6b656;fillColor=#FF8000;" parent="1" vertex="1">
          <mxGeometry x="1080" y="-390" width="70" height="20" as="geometry" />
        </mxCell>
        <mxCell id="uXUEuZgN4HHDqKwv0Y2o-184" style="edgeStyle=orthogonalEdgeStyle;rounded=0;orthogonalLoop=1;jettySize=auto;html=1;exitX=1;exitY=1;exitDx=0;exitDy=0;entryX=0;entryY=1;entryDx=0;entryDy=0;strokeWidth=1;fontSize=15;fontColor=#FF3333;dashed=1;" parent="1" source="uXUEuZgN4HHDqKwv0Y2o-165" target="uXUEuZgN4HHDqKwv0Y2o-182" edge="1">
          <mxGeometry relative="1" as="geometry">
            <Array as="points">
              <mxPoint x="1270" y="-350" />
              <mxPoint x="1270" y="-350" />
            </Array>
          </mxGeometry>
        </mxCell>
        <mxCell id="uXUEuZgN4HHDqKwv0Y2o-165" value="spill" style="rounded=1;whiteSpace=wrap;html=1;fontSize=16;strokeColor=#d6b656;fillColor=#FF8000;" parent="1" vertex="1">
          <mxGeometry x="1080" y="-370" width="70" height="20" as="geometry" />
        </mxCell>
        <mxCell id="uXUEuZgN4HHDqKwv0Y2o-166" value="spill" style="rounded=1;whiteSpace=wrap;html=1;fontSize=16;fontStyle=0;strokeColor=#666666;fontColor=#333333;fillColor=#DEDEDE;" parent="1" vertex="1">
          <mxGeometry x="1080" y="-138" width="70" height="20" as="geometry" />
        </mxCell>
        <mxCell id="uXUEuZgN4HHDqKwv0Y2o-167" value="spill" style="rounded=1;whiteSpace=wrap;html=1;fontSize=16;strokeColor=#d6b656;fillColor=#FFFF99;" parent="1" vertex="1">
          <mxGeometry x="1080" y="-118" width="70" height="20" as="geometry" />
        </mxCell>
        <mxCell id="uXUEuZgN4HHDqKwv0Y2o-187" style="edgeStyle=orthogonalEdgeStyle;rounded=0;orthogonalLoop=1;jettySize=auto;html=1;exitX=1;exitY=1;exitDx=0;exitDy=0;entryX=0;entryY=1;entryDx=0;entryDy=0;dashed=1;strokeWidth=1;fontSize=15;fontColor=#FF3333;" parent="1" source="uXUEuZgN4HHDqKwv0Y2o-168" target="uXUEuZgN4HHDqKwv0Y2o-185" edge="1">
          <mxGeometry relative="1" as="geometry">
            <Array as="points">
              <mxPoint x="1150" y="-80" />
            </Array>
          </mxGeometry>
        </mxCell>
        <mxCell id="uXUEuZgN4HHDqKwv0Y2o-168" value="spill" style="rounded=1;whiteSpace=wrap;html=1;fontSize=16;strokeColor=#d6b656;fillColor=#FFFF99;" parent="1" vertex="1">
          <mxGeometry x="1080" y="-98" width="70" height="20" as="geometry" />
        </mxCell>
        <mxCell id="uXUEuZgN4HHDqKwv0Y2o-183" style="edgeStyle=orthogonalEdgeStyle;rounded=0;orthogonalLoop=1;jettySize=auto;html=1;exitX=1;exitY=0;exitDx=0;exitDy=0;entryX=0;entryY=0;entryDx=0;entryDy=0;strokeWidth=1;fontSize=15;fontColor=#FF3333;dashed=1;" parent="1" source="uXUEuZgN4HHDqKwv0Y2o-169" target="uXUEuZgN4HHDqKwv0Y2o-182" edge="1">
          <mxGeometry relative="1" as="geometry">
            <Array as="points">
              <mxPoint x="1350" y="-590" />
              <mxPoint x="1350" y="-590" />
            </Array>
          </mxGeometry>
        </mxCell>
        <mxCell id="uXUEuZgN4HHDqKwv0Y2o-169" value="file" style="rounded=0;whiteSpace=wrap;html=1;fontSize=16;fontStyle=0;strokeColor=#666666;fontColor=#333333;fillColor=#DEDEDE;" parent="1" vertex="1">
          <mxGeometry x="1230" y="-590" width="60" height="60" as="geometry" />
        </mxCell>
        <mxCell id="uXUEuZgN4HHDqKwv0Y2o-170" value="file" style="rounded=0;whiteSpace=wrap;html=1;fontSize=16;fontStyle=0;strokeColor=#666666;fontColor=#333333;fillColor=#DEDEDE;" parent="1" vertex="1">
          <mxGeometry x="1230" y="-510" width="60" height="80" as="geometry" />
        </mxCell>
        <mxCell id="uXUEuZgN4HHDqKwv0Y2o-186" style="edgeStyle=orthogonalEdgeStyle;rounded=0;orthogonalLoop=1;jettySize=auto;html=1;exitX=1;exitY=0;exitDx=0;exitDy=0;entryX=0;entryY=0;entryDx=0;entryDy=0;dashed=1;strokeWidth=1;fontSize=15;fontColor=#FF3333;" parent="1" source="uXUEuZgN4HHDqKwv0Y2o-171" target="uXUEuZgN4HHDqKwv0Y2o-185" edge="1">
          <mxGeometry relative="1" as="geometry">
            <Array as="points">
              <mxPoint x="1340" y="-320" />
              <mxPoint x="1340" y="-320" />
            </Array>
          </mxGeometry>
        </mxCell>
        <mxCell id="uXUEuZgN4HHDqKwv0Y2o-171" value="file" style="rounded=0;whiteSpace=wrap;html=1;fontSize=16;fontStyle=0;strokeColor=#666666;fontColor=#333333;fillColor=#DEDEDE;" parent="1" vertex="1">
          <mxGeometry x="1230" y="-320" width="60" height="60" as="geometry" />
        </mxCell>
        <mxCell id="uXUEuZgN4HHDqKwv0Y2o-172" value="file" style="rounded=0;whiteSpace=wrap;html=1;fontSize=16;fontStyle=0;strokeColor=#666666;fontColor=#333333;fillColor=#DEDEDE;" parent="1" vertex="1">
          <mxGeometry x="1230" y="-240" width="60" height="80" as="geometry" />
        </mxCell>
        <mxCell id="uXUEuZgN4HHDqKwv0Y2o-173" style="edgeStyle=orthogonalEdgeStyle;rounded=0;orthogonalLoop=1;jettySize=auto;html=1;exitX=1;exitY=0;exitDx=0;exitDy=0;entryX=0;entryY=0;entryDx=0;entryDy=0;strokeWidth=1;fontSize=15;fontColor=#FF3333;dashed=1;" parent="1" source="uXUEuZgN4HHDqKwv0Y2o-155" target="uXUEuZgN4HHDqKwv0Y2o-171" edge="1">
          <mxGeometry relative="1" as="geometry">
            <Array as="points">
              <mxPoint x="1190" y="-320" />
              <mxPoint x="1190" y="-320" />
            </Array>
          </mxGeometry>
        </mxCell>
        <mxCell id="uXUEuZgN4HHDqKwv0Y2o-174" style="edgeStyle=orthogonalEdgeStyle;rounded=0;orthogonalLoop=1;jettySize=auto;html=1;exitX=1;exitY=1;exitDx=0;exitDy=0;entryX=0;entryY=1;entryDx=0;entryDy=0;strokeWidth=1;fontSize=15;fontColor=#FF3333;dashed=1;" parent="1" source="uXUEuZgN4HHDqKwv0Y2o-157" target="uXUEuZgN4HHDqKwv0Y2o-171" edge="1">
          <mxGeometry relative="1" as="geometry">
            <mxPoint x="1154" y="-303" as="sourcePoint" />
            <mxPoint x="1234" y="-303" as="targetPoint" />
            <Array as="points">
              <mxPoint x="1190" y="-260" />
              <mxPoint x="1190" y="-260" />
            </Array>
          </mxGeometry>
        </mxCell>
        <mxCell id="uXUEuZgN4HHDqKwv0Y2o-175" style="edgeStyle=orthogonalEdgeStyle;rounded=0;orthogonalLoop=1;jettySize=auto;html=1;exitX=1;exitY=0;exitDx=0;exitDy=0;entryX=0;entryY=0;entryDx=0;entryDy=0;strokeWidth=1;fontSize=15;fontColor=#FF3333;dashed=1;" parent="1" source="uXUEuZgN4HHDqKwv0Y2o-161" target="uXUEuZgN4HHDqKwv0Y2o-172" edge="1">
          <mxGeometry relative="1" as="geometry">
            <mxPoint x="1170" y="-300" as="sourcePoint" />
            <mxPoint x="1250" y="-300" as="targetPoint" />
            <Array as="points">
              <mxPoint x="1190" y="-240" />
              <mxPoint x="1190" y="-240" />
            </Array>
          </mxGeometry>
        </mxCell>
        <mxCell id="uXUEuZgN4HHDqKwv0Y2o-180" style="edgeStyle=orthogonalEdgeStyle;rounded=0;orthogonalLoop=1;jettySize=auto;html=1;exitX=1;exitY=0;exitDx=0;exitDy=0;entryX=0;entryY=0;entryDx=0;entryDy=0;strokeWidth=1;fontSize=15;fontColor=#FF3333;dashed=1;" parent="1" source="uXUEuZgN4HHDqKwv0Y2o-143" target="uXUEuZgN4HHDqKwv0Y2o-169" edge="1">
          <mxGeometry relative="1" as="geometry">
            <Array as="points">
              <mxPoint x="1190" y="-590" />
              <mxPoint x="1190" y="-590" />
            </Array>
          </mxGeometry>
        </mxCell>
        <mxCell id="uXUEuZgN4HHDqKwv0Y2o-181" style="edgeStyle=orthogonalEdgeStyle;rounded=0;orthogonalLoop=1;jettySize=auto;html=1;exitX=1;exitY=1;exitDx=0;exitDy=0;entryX=0;entryY=1;entryDx=0;entryDy=0;strokeWidth=1;fontSize=15;fontColor=#FF3333;dashed=1;" parent="1" source="uXUEuZgN4HHDqKwv0Y2o-151" target="uXUEuZgN4HHDqKwv0Y2o-169" edge="1">
          <mxGeometry relative="1" as="geometry">
            <Array as="points">
              <mxPoint x="1190" y="-530" />
              <mxPoint x="1190" y="-530" />
            </Array>
          </mxGeometry>
        </mxCell>
        <mxCell id="uXUEuZgN4HHDqKwv0Y2o-219" style="edgeStyle=none;rounded=0;orthogonalLoop=1;jettySize=auto;html=1;exitX=1;exitY=0.5;exitDx=0;exitDy=0;entryX=0;entryY=0.5;entryDx=0;entryDy=0;strokeWidth=1;fontSize=15;fontColor=#000000;" parent="1" source="uXUEuZgN4HHDqKwv0Y2o-182" target="uXUEuZgN4HHDqKwv0Y2o-215" edge="1">
          <mxGeometry relative="1" as="geometry" />
        </mxCell>
        <mxCell id="uXUEuZgN4HHDqKwv0Y2o-182" value="file" style="rounded=0;whiteSpace=wrap;html=1;fontSize=16;fontStyle=0;strokeColor=#666666;fontColor=#333333;fillColor=#DEDEDE;" parent="1" vertex="1">
          <mxGeometry x="1380" y="-590" width="70" height="240" as="geometry" />
        </mxCell>
        <mxCell id="uXUEuZgN4HHDqKwv0Y2o-221" style="edgeStyle=none;rounded=0;orthogonalLoop=1;jettySize=auto;html=1;exitX=1;exitY=0.5;exitDx=0;exitDy=0;entryX=0;entryY=0.5;entryDx=0;entryDy=0;strokeWidth=1;fontSize=15;fontColor=#000000;" parent="1" source="uXUEuZgN4HHDqKwv0Y2o-185" target="uXUEuZgN4HHDqKwv0Y2o-217" edge="1">
          <mxGeometry relative="1" as="geometry" />
        </mxCell>
        <mxCell id="uXUEuZgN4HHDqKwv0Y2o-185" value="file" style="rounded=0;whiteSpace=wrap;html=1;fontSize=16;fontStyle=0;strokeColor=#666666;fontColor=#333333;fillColor=#DEDEDE;" parent="1" vertex="1">
          <mxGeometry x="1380" y="-320" width="70" height="240" as="geometry" />
        </mxCell>
        <mxCell id="uXUEuZgN4HHDqKwv0Y2o-208" value="3.1）copy 过程中&lt;br&gt;磁盘 merge" style="text;html=1;strokeColor=none;fillColor=none;align=center;verticalAlign=middle;whiteSpace=wrap;rounded=0;fontSize=15;" parent="1" vertex="1">
          <mxGeometry x="1160" y="-570" width="60" height="100" as="geometry" />
        </mxCell>
        <mxCell id="uXUEuZgN4HHDqKwv0Y2o-210" value="颜色不同的数据可能&lt;br&gt;&lt;font color=&quot;#ff3333&quot;&gt;直接来自内存&lt;/font&gt;" style="text;html=1;strokeColor=none;fillColor=none;align=left;verticalAlign=middle;whiteSpace=wrap;rounded=0;fontSize=15;" parent="1" vertex="1">
          <mxGeometry x="1160" y="-402.5" width="170" height="45" as="geometry" />
        </mxCell>
        <mxCell id="uXUEuZgN4HHDqKwv0Y2o-212" value="颜色不同的数据可能&lt;br&gt;&lt;font color=&quot;#ff3333&quot;&gt;直接来自内存&lt;/font&gt;" style="text;html=1;strokeColor=none;fillColor=none;align=left;verticalAlign=middle;whiteSpace=wrap;rounded=0;fontSize=15;" parent="1" vertex="1">
          <mxGeometry x="1160" y="-130.5" width="170" height="45" as="geometry" />
        </mxCell>
        <mxCell id="uXUEuZgN4HHDqKwv0Y2o-214" value="3.2）&lt;br&gt;最终&lt;br&gt;磁盘 merge" style="text;html=1;strokeColor=none;fillColor=none;align=center;verticalAlign=middle;whiteSpace=wrap;rounded=0;fontSize=15;" parent="1" vertex="1">
          <mxGeometry x="1310" y="-560" width="60" height="100" as="geometry" />
        </mxCell>
        <mxCell id="uXUEuZgN4HHDqKwv0Y2o-215" value="Reduce&lt;br&gt;函数" style="rounded=0;whiteSpace=wrap;html=1;fillColor=#dae8fc;fontSize=16;strokeColor=#6c8ebf;" parent="1" vertex="1">
          <mxGeometry x="1480" y="-545" width="70" height="150" as="geometry" />
        </mxCell>
        <mxCell id="uXUEuZgN4HHDqKwv0Y2o-217" value="Reduce&lt;br&gt;函数" style="rounded=0;whiteSpace=wrap;html=1;fillColor=#dae8fc;fontSize=16;strokeColor=#6c8ebf;" parent="1" vertex="1">
          <mxGeometry x="1480" y="-275" width="70" height="150" as="geometry" />
        </mxCell>
        <mxCell id="uXUEuZgN4HHDqKwv0Y2o-218" value="HDFS" style="rounded=1;whiteSpace=wrap;html=1;fontSize=16;fontStyle=1;fillColor=#f8cecc;strokeColor=#b85450;" parent="1" vertex="1">
          <mxGeometry x="1590" y="-590" width="100" height="510" as="geometry" />
        </mxCell>
        <mxCell id="uXUEuZgN4HHDqKwv0Y2o-222" value="part 0" style="rounded=1;whiteSpace=wrap;html=1;fontSize=16;strokeColor=#d6b656;fillColor=#FF8000;" parent="1" vertex="1">
          <mxGeometry x="1605" y="-492.5" width="70" height="45" as="geometry" />
        </mxCell>
        <mxCell id="uXUEuZgN4HHDqKwv0Y2o-224" value="part 1" style="rounded=1;whiteSpace=wrap;html=1;fontSize=16;strokeColor=#d6b656;fillColor=#FFFF99;" parent="1" vertex="1">
          <mxGeometry x="1605" y="-222.5" width="70" height="45" as="geometry" />
        </mxCell>
        <mxCell id="uXUEuZgN4HHDqKwv0Y2o-226" value="" style="endArrow=classic;html=1;strokeWidth=1;fontSize=15;fontColor=#000000;entryX=0;entryY=0.5;entryDx=0;entryDy=0;exitX=1;exitY=0.5;exitDx=0;exitDy=0;" parent="1" source="uXUEuZgN4HHDqKwv0Y2o-215" target="uXUEuZgN4HHDqKwv0Y2o-222" edge="1">
          <mxGeometry width="50" height="50" relative="1" as="geometry">
            <mxPoint x="1400" y="-240" as="sourcePoint" />
            <mxPoint x="1450" y="-290" as="targetPoint" />
          </mxGeometry>
        </mxCell>
        <mxCell id="uXUEuZgN4HHDqKwv0Y2o-227" value="" style="endArrow=classic;html=1;strokeWidth=1;fontSize=15;fontColor=#000000;entryX=0;entryY=0.5;entryDx=0;entryDy=0;exitX=1;exitY=0.5;exitDx=0;exitDy=0;" parent="1" source="uXUEuZgN4HHDqKwv0Y2o-217" target="uXUEuZgN4HHDqKwv0Y2o-224" edge="1">
          <mxGeometry width="50" height="50" relative="1" as="geometry">
            <mxPoint x="1400" y="-240" as="sourcePoint" />
            <mxPoint x="1450" y="-290" as="targetPoint" />
          </mxGeometry>
        </mxCell>
        <mxCell id="uXUEuZgN4HHDqKwv0Y2o-228" style="edgeStyle=orthogonalEdgeStyle;rounded=0;orthogonalLoop=1;jettySize=auto;html=1;exitX=0.5;exitY=0;exitDx=0;exitDy=0;entryX=0;entryY=0.5;entryDx=0;entryDy=0;strokeWidth=2;fontSize=15;fontColor=#000000;elbow=vertical;curved=1;strokeColor=#FF8000;" parent="1" source="uXUEuZgN4HHDqKwv0Y2o-30" target="uXUEuZgN4HHDqKwv0Y2o-133" edge="1">
          <mxGeometry relative="1" as="geometry">
            <Array as="points">
              <mxPoint x="750" y="-530" />
              <mxPoint x="890" y="-530" />
            </Array>
          </mxGeometry>
        </mxCell>
        <mxCell id="uXUEuZgN4HHDqKwv0Y2o-229" style="edgeStyle=orthogonalEdgeStyle;curved=1;rounded=0;orthogonalLoop=1;jettySize=auto;html=1;exitX=0.5;exitY=0;exitDx=0;exitDy=0;entryX=0.01;entryY=0.547;entryDx=0;entryDy=0;strokeWidth=2;fontSize=15;fontColor=#000000;entryPerimeter=0;strokeColor=#FF8000;" parent="1" source="uXUEuZgN4HHDqKwv0Y2o-77" target="uXUEuZgN4HHDqKwv0Y2o-133" edge="1">
          <mxGeometry relative="1" as="geometry" />
        </mxCell>
        <mxCell id="uXUEuZgN4HHDqKwv0Y2o-231" style="edgeStyle=orthogonalEdgeStyle;curved=1;rounded=0;orthogonalLoop=1;jettySize=auto;html=1;exitX=1;exitY=0.5;exitDx=0;exitDy=0;entryX=0;entryY=0.25;entryDx=0;entryDy=0;strokeWidth=2;fontSize=15;fontColor=#000000;strokeColor=#999900;" parent="1" source="uXUEuZgN4HHDqKwv0Y2o-31" target="uXUEuZgN4HHDqKwv0Y2o-134" edge="1">
          <mxGeometry relative="1" as="geometry" />
        </mxCell>
        <mxCell id="uXUEuZgN4HHDqKwv0Y2o-232" style="edgeStyle=orthogonalEdgeStyle;curved=1;rounded=0;orthogonalLoop=1;jettySize=auto;html=1;exitX=1;exitY=0.5;exitDx=0;exitDy=0;entryX=0;entryY=0.25;entryDx=0;entryDy=0;strokeWidth=2;fontSize=15;fontColor=#000000;strokeColor=#999900;" parent="1" source="uXUEuZgN4HHDqKwv0Y2o-78" target="uXUEuZgN4HHDqKwv0Y2o-134" edge="1">
          <mxGeometry relative="1" as="geometry" />
        </mxCell>
        <mxCell id="uXUEuZgN4HHDqKwv0Y2o-234" value="&lt;span style=&quot;font-size: 15px&quot;&gt;压缩对 CPU 造成压力，但对 io 友好&lt;br&gt;参数配置：&lt;br&gt;mapreduce.map.output.compress&lt;br&gt;mapreduce.map.output.compress.codec&lt;br&gt;&lt;/span&gt;" style="shape=callout;whiteSpace=wrap;html=1;perimeter=calloutPerimeter;strokeColor=#0000FF;fillColor=#FFFF99;fontSize=15;align=left;size=0;position=0.6;position2=0.83;base=130;" parent="1" vertex="1">
          <mxGeometry x="507.5" y="-123" width="312.5" height="80" as="geometry" />
        </mxCell>
        <mxCell id="uXUEuZgN4HHDqKwv0Y2o-236" value="" style="shape=flexArrow;endArrow=classic;html=1;fontSize=15;exitX=0.933;exitY=0;exitDx=0;exitDy=0;exitPerimeter=0;" parent="1" source="uXUEuZgN4HHDqKwv0Y2o-234" edge="1">
          <mxGeometry width="50" height="50" relative="1" as="geometry">
            <mxPoint x="800" y="-130" as="sourcePoint" />
            <mxPoint x="790" y="-190" as="targetPoint" />
          </mxGeometry>
        </mxCell>
        <mxCell id="uXUEuZgN4HHDqKwv0Y2o-237" value="到阈值" style="text;html=1;strokeColor=none;fillColor=none;align=center;verticalAlign=middle;whiteSpace=wrap;rounded=0;fontSize=15;fontColor=#000000;" parent="1" vertex="1">
          <mxGeometry x="1010" y="-590" width="50" height="20" as="geometry" />
        </mxCell>
        <mxCell id="uXUEuZgN4HHDqKwv0Y2o-239" value="到阈值" style="text;html=1;strokeColor=none;fillColor=none;align=center;verticalAlign=middle;whiteSpace=wrap;rounded=0;fontSize=15;fontColor=#000000;" parent="1" vertex="1">
          <mxGeometry x="1010" y="-320" width="50" height="20" as="geometry" />
        </mxCell>
        <mxCell id="uXUEuZgN4HHDqKwv0Y2o-240" value="Shuffle&lt;br style=&quot;font-size: 21px;&quot;&gt;copy 数据" style="rounded=1;whiteSpace=wrap;html=1;strokeColor=#000000;strokeWidth=1;fontSize=21;align=left;fillColor=#FFFFFF;fontColor=#FF3333;" parent="1" vertex="1">
          <mxGeometry x="790" y="-410" width="100" height="60" as="geometry" />
        </mxCell>
        <mxCell id="uXUEuZgN4HHDqKwv0Y2o-242" value="" style="ellipse;whiteSpace=wrap;html=1;rounded=0;strokeColor=#000000;strokeWidth=1;fontSize=21;fontColor=#FF3333;align=left;dashed=1;fillColor=none;" parent="1" vertex="1">
          <mxGeometry x="800" y="-560" width="90" height="110" as="geometry" />
        </mxCell>
        <mxCell id="uXUEuZgN4HHDqKwv0Y2o-245" value="&lt;span style=&quot;font-size: 15px&quot;&gt;控制 reduce 节点，并发下载 map 输出的线程数，&lt;br&gt;控制下载超时时间，配置下面参数：&lt;br&gt;mapreduce.reduce.shuffle.parallelcopies&lt;br&gt;mapreduce.reduce.shuffle.read.timeout&lt;br&gt;&lt;/span&gt;" style="shape=callout;whiteSpace=wrap;html=1;perimeter=calloutPerimeter;strokeColor=#0000FF;fillColor=#FFFF99;fontSize=15;align=left;size=0;position=0.6;position2=0.83;base=130;" parent="1" vertex="1">
          <mxGeometry x="570" y="-920" width="350" height="90" as="geometry" />
        </mxCell>
        <mxCell id="uXUEuZgN4HHDqKwv0Y2o-247" value="" style="shape=flexArrow;endArrow=classic;html=1;fontSize=15;entryX=0.5;entryY=0;entryDx=0;entryDy=0;exitX=0;exitY=0;exitDx=290.5;exitDy=90;exitPerimeter=0;" parent="1" source="uXUEuZgN4HHDqKwv0Y2o-245" target="uXUEuZgN4HHDqKwv0Y2o-242" edge="1">
          <mxGeometry width="50" height="50" relative="1" as="geometry">
            <mxPoint x="763" y="-827.5" as="sourcePoint" />
            <mxPoint x="820" y="-642.5" as="targetPoint" />
          </mxGeometry>
        </mxCell>
        <mxCell id="uXUEuZgN4HHDqKwv0Y2o-248" value="&lt;span style=&quot;font-size: 15px&quot;&gt;设置缓冲区大小&lt;br&gt;mapreduce.reduce.shuffle.input.buffer.percent&amp;nbsp;&lt;br&gt;mapreduce.reduce.shuffle.merge.percent (spill 阈值百分比)&lt;br&gt;&lt;/span&gt;mapreduce.admin.reduce.child.java.opts (reduce 阶段堆内存的比例)&lt;span style=&quot;font-size: 15px&quot;&gt;&lt;br&gt;&lt;/span&gt;" style="shape=callout;whiteSpace=wrap;html=1;perimeter=calloutPerimeter;strokeColor=#0000FF;fillColor=#FFFF99;fontSize=15;align=left;size=0;position=0.6;position2=0.83;base=130;" parent="1" vertex="1">
          <mxGeometry x="800" y="-20" width="430" height="100" as="geometry" />
        </mxCell>
        <mxCell id="uXUEuZgN4HHDqKwv0Y2o-249" value="" style="shape=flexArrow;endArrow=classic;html=1;fontSize=15;exitX=0.602;exitY=-0.01;exitDx=0;exitDy=0;exitPerimeter=0;entryX=0.9;entryY=1;entryDx=0;entryDy=0;entryPerimeter=0;" parent="1" source="uXUEuZgN4HHDqKwv0Y2o-248" target="uXUEuZgN4HHDqKwv0Y2o-134" edge="1">
          <mxGeometry width="50" height="50" relative="1" as="geometry">
            <mxPoint x="1019.0625" y="-54.5" as="sourcePoint" />
            <mxPoint x="1010" y="-121.5" as="targetPoint" />
          </mxGeometry>
        </mxCell>
        <mxCell id="uXUEuZgN4HHDqKwv0Y2o-252" value="&lt;span style=&quot;font-size: 15px&quot;&gt;Merge sort&lt;br&gt;1. 内存到内存的 merge&lt;br&gt;2. 内存中的 merge&lt;br&gt;3.1 copy 过程中磁盘文件 merge&lt;br&gt;3.2 最终磁盘 merge，一般是边拷贝数据边排序&lt;br&gt;&lt;/span&gt;" style="shape=callout;whiteSpace=wrap;html=1;perimeter=calloutPerimeter;strokeColor=#0000FF;fillColor=#FFFF99;fontSize=15;align=left;size=40;position=0.11;position2=0.26;base=31;" parent="1" vertex="1">
          <mxGeometry x="890" y="-780" width="350" height="170" as="geometry" />
        </mxCell>
        <mxCell id="uXUEuZgN4HHDqKwv0Y2o-257" value="&lt;span style=&quot;font-size: 15px&quot;&gt;reduce 的输入缓冲区&lt;br&gt;mapreduce.reduce.input.buffer.percent&lt;br&gt;默认使用 4KB 作为缓冲，可以通过&lt;br&gt;io.file.buffer.size 来调整缓冲池的大小（core-site.xml 中）&lt;br&gt;&lt;/span&gt;" style="shape=callout;whiteSpace=wrap;html=1;perimeter=calloutPerimeter;strokeColor=#0000FF;fillColor=#FFFF99;fontSize=15;align=left;size=0;position=0.6;position2=0.83;base=130;" parent="1" vertex="1">
          <mxGeometry x="1385" y="-780" width="265" height="110" as="geometry" />
        </mxCell>
        <mxCell id="uXUEuZgN4HHDqKwv0Y2o-258" value="" style="shape=flexArrow;endArrow=classic;html=1;fontSize=15;entryX=0.5;entryY=0;entryDx=0;entryDy=0;" parent="1" target="uXUEuZgN4HHDqKwv0Y2o-215" edge="1">
          <mxGeometry width="50" height="50" relative="1" as="geometry">
            <mxPoint x="1490.5" y="-670" as="sourcePoint" />
            <mxPoint x="1539.5" y="-555" as="targetPoint" />
          </mxGeometry>
        </mxCell>
        <mxCell id="uXUEuZgN4HHDqKwv0Y2o-259" value="&lt;span style=&quot;font-size: 15px&quot;&gt;mapreduce.job.jvm.numtasks&lt;br&gt;为每个 task 启动一个新的 jvm 需耗时 1秒左右，如果 task 本身运行时间比较短，就可以考虑&lt;b&gt;&lt;font color=&quot;#ff3333&quot;&gt;重用 jvm&lt;/font&gt;&lt;/b&gt;，将上面的参数设置成大于1的数。&lt;br&gt;这表示同一阶段顺序执行的 task 可以共用一个 jvm&lt;br&gt;&lt;/span&gt;" style="shape=callout;whiteSpace=wrap;html=1;perimeter=calloutPerimeter;strokeColor=#0000FF;fillColor=#FFFF99;fontSize=15;align=left;size=0;position=0.6;position2=0.83;base=130;" parent="1" vertex="1">
          <mxGeometry x="1290" y="-940" width="350" height="100" as="geometry" />
        </mxCell>
      </root>
    </mxGraphModel>
  </diagram>
  <diagram id="Z2WAk7ePtmic8gQtdXwb" name="第 2 页">
    <mxGraphModel dx="2246" dy="1179" grid="0" gridSize="10" guides="1" tooltips="1" connect="1" arrows="1" fold="1" page="0" pageScale="1" pageWidth="850" pageHeight="1100" math="0" shadow="0">
      <root>
        <mxCell id="0KDi5xRY9AjB1vGYeyKL-0" />
        <mxCell id="0KDi5xRY9AjB1vGYeyKL-1" parent="0KDi5xRY9AjB1vGYeyKL-0" />
        <mxCell id="S59Qb9Dpt4DzsVfJs5-Z-90" value="" style="rounded=0;whiteSpace=wrap;html=1;dashed=1;fillColor=#f5f5f5;fontSize=15;fontColor=#333333;align=center;strokeColor=none;" parent="0KDi5xRY9AjB1vGYeyKL-1" vertex="1">
          <mxGeometry x="493" y="920" width="757" height="460" as="geometry" />
        </mxCell>
        <mxCell id="S59Qb9Dpt4DzsVfJs5-Z-120" value="" style="rounded=0;whiteSpace=wrap;html=1;dashed=1;gradientColor=none;fontSize=15;fontColor=#000000;align=center;fillColor=none;" parent="0KDi5xRY9AjB1vGYeyKL-1" vertex="1">
          <mxGeometry x="700" y="1070" width="150" height="120" as="geometry" />
        </mxCell>
        <mxCell id="S59Qb9Dpt4DzsVfJs5-Z-59" value="" style="group" parent="0KDi5xRY9AjB1vGYeyKL-1" vertex="1" connectable="0">
          <mxGeometry x="580" y="160" width="150" height="520" as="geometry" />
        </mxCell>
        <mxCell id="S59Qb9Dpt4DzsVfJs5-Z-48" value="" style="shape=internalStorage;whiteSpace=wrap;html=1;backgroundOutline=1;fontSize=16;" parent="S59Qb9Dpt4DzsVfJs5-Z-59" vertex="1">
          <mxGeometry width="150" height="520" as="geometry" />
        </mxCell>
        <mxCell id="S59Qb9Dpt4DzsVfJs5-Z-49" value="规则管理" style="text;html=1;strokeColor=none;fillColor=none;align=center;verticalAlign=middle;whiteSpace=wrap;rounded=0;fontSize=13;" parent="S59Qb9Dpt4DzsVfJs5-Z-59" vertex="1">
          <mxGeometry x="55" width="55" height="20" as="geometry" />
        </mxCell>
        <mxCell id="S59Qb9Dpt4DzsVfJs5-Z-51" value="开始" style="ellipse;whiteSpace=wrap;html=1;fontSize=13;" parent="S59Qb9Dpt4DzsVfJs5-Z-59" vertex="1">
          <mxGeometry x="47.5" y="70" width="70" height="40" as="geometry" />
        </mxCell>
        <mxCell id="S59Qb9Dpt4DzsVfJs5-Z-63" style="edgeStyle=orthogonalEdgeStyle;rounded=0;orthogonalLoop=1;jettySize=auto;html=1;exitX=0.5;exitY=1;exitDx=0;exitDy=0;fontSize=13;curved=1;" parent="S59Qb9Dpt4DzsVfJs5-Z-59" source="S59Qb9Dpt4DzsVfJs5-Z-50" target="S59Qb9Dpt4DzsVfJs5-Z-61" edge="1">
          <mxGeometry relative="1" as="geometry" />
        </mxCell>
        <mxCell id="S59Qb9Dpt4DzsVfJs5-Z-50" value="规则创建" style="rounded=1;whiteSpace=wrap;html=1;fontSize=13;" parent="S59Qb9Dpt4DzsVfJs5-Z-59" vertex="1">
          <mxGeometry x="32.5" y="158" width="100" height="40" as="geometry" />
        </mxCell>
        <mxCell id="S59Qb9Dpt4DzsVfJs5-Z-52" style="edgeStyle=orthogonalEdgeStyle;rounded=0;orthogonalLoop=1;jettySize=auto;html=1;exitX=0.5;exitY=1;exitDx=0;exitDy=0;entryX=0.5;entryY=0;entryDx=0;entryDy=0;fontSize=13;curved=1;" parent="S59Qb9Dpt4DzsVfJs5-Z-59" source="S59Qb9Dpt4DzsVfJs5-Z-51" target="S59Qb9Dpt4DzsVfJs5-Z-50" edge="1">
          <mxGeometry relative="1" as="geometry" />
        </mxCell>
        <mxCell id="S59Qb9Dpt4DzsVfJs5-Z-64" style="edgeStyle=orthogonalEdgeStyle;rounded=0;orthogonalLoop=1;jettySize=auto;html=1;exitX=0.5;exitY=1;exitDx=0;exitDy=0;entryX=0.5;entryY=0;entryDx=0;entryDy=0;fontSize=13;curved=1;" parent="S59Qb9Dpt4DzsVfJs5-Z-59" source="S59Qb9Dpt4DzsVfJs5-Z-61" target="S59Qb9Dpt4DzsVfJs5-Z-62" edge="1">
          <mxGeometry relative="1" as="geometry" />
        </mxCell>
        <mxCell id="S59Qb9Dpt4DzsVfJs5-Z-61" value="规则测验" style="rounded=1;whiteSpace=wrap;html=1;fontSize=13;" parent="S59Qb9Dpt4DzsVfJs5-Z-59" vertex="1">
          <mxGeometry x="32.5" y="250" width="100" height="40" as="geometry" />
        </mxCell>
        <mxCell id="bV53-A4vDUp8O7vBV4Kg-27" style="edgeStyle=orthogonalEdgeStyle;rounded=0;orthogonalLoop=1;jettySize=auto;html=1;exitX=0.5;exitY=1;exitDx=0;exitDy=0;entryX=0.5;entryY=0;entryDx=0;entryDy=0;curved=1;" edge="1" parent="S59Qb9Dpt4DzsVfJs5-Z-59" source="S59Qb9Dpt4DzsVfJs5-Z-62" target="bV53-A4vDUp8O7vBV4Kg-26">
          <mxGeometry relative="1" as="geometry" />
        </mxCell>
        <mxCell id="S59Qb9Dpt4DzsVfJs5-Z-62" value="规则修改" style="rounded=1;whiteSpace=wrap;html=1;fontSize=13;" parent="S59Qb9Dpt4DzsVfJs5-Z-59" vertex="1">
          <mxGeometry x="32.5" y="350" width="100" height="40" as="geometry" />
        </mxCell>
        <mxCell id="bV53-A4vDUp8O7vBV4Kg-26" value="列表展示" style="rounded=1;whiteSpace=wrap;html=1;fontSize=13;" vertex="1" parent="S59Qb9Dpt4DzsVfJs5-Z-59">
          <mxGeometry x="32.5" y="440" width="100" height="40" as="geometry" />
        </mxCell>
        <mxCell id="bV53-A4vDUp8O7vBV4Kg-32" style="edgeStyle=orthogonalEdgeStyle;curved=1;rounded=0;orthogonalLoop=1;jettySize=auto;html=1;exitX=0;exitY=0.5;exitDx=0;exitDy=0;exitPerimeter=0;entryX=1;entryY=0.5;entryDx=0;entryDy=0;entryPerimeter=0;fontSize=13;" edge="1" parent="0KDi5xRY9AjB1vGYeyKL-1" source="S59Qb9Dpt4DzsVfJs5-Z-0" target="S59Qb9Dpt4DzsVfJs5-Z-1">
          <mxGeometry relative="1" as="geometry" />
        </mxCell>
        <mxCell id="S59Qb9Dpt4DzsVfJs5-Z-0" value="指标 / 因子 表" style="shape=cylinder3;whiteSpace=wrap;html=1;boundedLbl=1;backgroundOutline=1;size=15;" parent="0KDi5xRY9AjB1vGYeyKL-1" vertex="1">
          <mxGeometry x="255" y="320" width="110" height="60" as="geometry" />
        </mxCell>
        <mxCell id="S59Qb9Dpt4DzsVfJs5-Z-5" style="edgeStyle=orthogonalEdgeStyle;rounded=0;orthogonalLoop=1;jettySize=auto;html=1;exitX=0;exitY=0.5;exitDx=0;exitDy=0;exitPerimeter=0;entryX=0;entryY=0.5;entryDx=0;entryDy=0;entryPerimeter=0;curved=1;" parent="0KDi5xRY9AjB1vGYeyKL-1" source="S59Qb9Dpt4DzsVfJs5-Z-1" target="S59Qb9Dpt4DzsVfJs5-Z-3" edge="1">
          <mxGeometry relative="1" as="geometry">
            <Array as="points">
              <mxPoint x="53" y="350" />
              <mxPoint x="53" y="600" />
            </Array>
          </mxGeometry>
        </mxCell>
        <mxCell id="S59Qb9Dpt4DzsVfJs5-Z-1" value="规则表" style="shape=cylinder3;whiteSpace=wrap;html=1;boundedLbl=1;backgroundOutline=1;size=15;" parent="0KDi5xRY9AjB1vGYeyKL-1" vertex="1">
          <mxGeometry x="80" y="320" width="110" height="60" as="geometry" />
        </mxCell>
        <mxCell id="S59Qb9Dpt4DzsVfJs5-Z-7" style="edgeStyle=orthogonalEdgeStyle;rounded=0;orthogonalLoop=1;jettySize=auto;html=1;exitX=0;exitY=0.5;exitDx=0;exitDy=0;exitPerimeter=0;entryX=0;entryY=0.5;entryDx=0;entryDy=0;entryPerimeter=0;curved=1;" parent="0KDi5xRY9AjB1vGYeyKL-1" source="S59Qb9Dpt4DzsVfJs5-Z-2" target="S59Qb9Dpt4DzsVfJs5-Z-3" edge="1">
          <mxGeometry relative="1" as="geometry">
            <Array as="points">
              <mxPoint x="60" y="480" />
              <mxPoint x="60" y="600" />
            </Array>
          </mxGeometry>
        </mxCell>
        <mxCell id="S59Qb9Dpt4DzsVfJs5-Z-2" value="模型信息表" style="shape=cylinder3;whiteSpace=wrap;html=1;boundedLbl=1;backgroundOutline=1;size=15;" parent="0KDi5xRY9AjB1vGYeyKL-1" vertex="1">
          <mxGeometry x="80" y="450" width="110" height="60" as="geometry" />
        </mxCell>
        <mxCell id="S59Qb9Dpt4DzsVfJs5-Z-3" value="模型 - 规则表" style="shape=cylinder3;whiteSpace=wrap;html=1;boundedLbl=1;backgroundOutline=1;size=15;" parent="0KDi5xRY9AjB1vGYeyKL-1" vertex="1">
          <mxGeometry x="80" y="570" width="110" height="60" as="geometry" />
        </mxCell>
        <mxCell id="S59Qb9Dpt4DzsVfJs5-Z-8" value="" style="endArrow=none;html=1;strokeWidth=2;curved=1;" parent="0KDi5xRY9AjB1vGYeyKL-1" edge="1">
          <mxGeometry width="50" height="50" relative="1" as="geometry">
            <mxPoint x="400" y="760" as="sourcePoint" />
            <mxPoint x="400" y="80" as="targetPoint" />
          </mxGeometry>
        </mxCell>
        <mxCell id="S59Qb9Dpt4DzsVfJs5-Z-9" value="页面操作" style="text;html=1;strokeColor=none;fillColor=none;align=center;verticalAlign=middle;whiteSpace=wrap;rounded=0;fontSize=16;fontStyle=1" parent="0KDi5xRY9AjB1vGYeyKL-1" vertex="1">
          <mxGeometry x="831" y="111" width="80" height="20" as="geometry" />
        </mxCell>
        <mxCell id="S59Qb9Dpt4DzsVfJs5-Z-10" value="" style="shape=internalStorage;whiteSpace=wrap;html=1;backgroundOutline=1;fontSize=16;" parent="0KDi5xRY9AjB1vGYeyKL-1" vertex="1">
          <mxGeometry x="430" y="160" width="150" height="520" as="geometry" />
        </mxCell>
        <mxCell id="S59Qb9Dpt4DzsVfJs5-Z-28" style="edgeStyle=orthogonalEdgeStyle;rounded=0;orthogonalLoop=1;jettySize=auto;html=1;exitX=0.5;exitY=1;exitDx=0;exitDy=0;fontSize=13;curved=1;" parent="0KDi5xRY9AjB1vGYeyKL-1" source="S59Qb9Dpt4DzsVfJs5-Z-26" target="S59Qb9Dpt4DzsVfJs5-Z-27" edge="1">
          <mxGeometry relative="1" as="geometry" />
        </mxCell>
        <mxCell id="S59Qb9Dpt4DzsVfJs5-Z-26" value="开始" style="ellipse;whiteSpace=wrap;html=1;fontSize=13;" parent="0KDi5xRY9AjB1vGYeyKL-1" vertex="1">
          <mxGeometry x="480" y="230" width="70" height="40" as="geometry" />
        </mxCell>
        <mxCell id="S59Qb9Dpt4DzsVfJs5-Z-81" style="edgeStyle=orthogonalEdgeStyle;rounded=0;orthogonalLoop=1;jettySize=auto;html=1;exitX=0.5;exitY=1;exitDx=0;exitDy=0;entryX=0.5;entryY=0;entryDx=0;entryDy=0;fontSize=13;fontColor=#FF0000;curved=1;" parent="0KDi5xRY9AjB1vGYeyKL-1" source="S59Qb9Dpt4DzsVfJs5-Z-27" target="S59Qb9Dpt4DzsVfJs5-Z-38" edge="1">
          <mxGeometry relative="1" as="geometry" />
        </mxCell>
        <mxCell id="S59Qb9Dpt4DzsVfJs5-Z-27" value="指标创建" style="rounded=1;whiteSpace=wrap;html=1;fontSize=13;" parent="0KDi5xRY9AjB1vGYeyKL-1" vertex="1">
          <mxGeometry x="465" y="318" width="100" height="40" as="geometry" />
        </mxCell>
        <mxCell id="bV53-A4vDUp8O7vBV4Kg-25" style="edgeStyle=orthogonalEdgeStyle;rounded=0;orthogonalLoop=1;jettySize=auto;html=1;exitX=0.5;exitY=1;exitDx=0;exitDy=0;curved=1;" edge="1" parent="0KDi5xRY9AjB1vGYeyKL-1" source="S59Qb9Dpt4DzsVfJs5-Z-38" target="bV53-A4vDUp8O7vBV4Kg-24">
          <mxGeometry relative="1" as="geometry" />
        </mxCell>
        <mxCell id="S59Qb9Dpt4DzsVfJs5-Z-38" value="指标修改" style="rounded=1;whiteSpace=wrap;html=1;fontSize=13;" parent="0KDi5xRY9AjB1vGYeyKL-1" vertex="1">
          <mxGeometry x="465" y="410" width="100" height="40" as="geometry" />
        </mxCell>
        <mxCell id="S59Qb9Dpt4DzsVfJs5-Z-45" value="调用历史表" style="shape=cylinder3;whiteSpace=wrap;html=1;boundedLbl=1;backgroundOutline=1;size=15;" parent="0KDi5xRY9AjB1vGYeyKL-1" vertex="1">
          <mxGeometry x="250" y="450" width="110" height="60" as="geometry" />
        </mxCell>
        <mxCell id="S59Qb9Dpt4DzsVfJs5-Z-46" value="调用详情表" style="shape=cylinder3;whiteSpace=wrap;html=1;boundedLbl=1;backgroundOutline=1;size=15;" parent="0KDi5xRY9AjB1vGYeyKL-1" vertex="1">
          <mxGeometry x="250" y="570" width="110" height="60" as="geometry" />
        </mxCell>
        <mxCell id="S59Qb9Dpt4DzsVfJs5-Z-47" value="指标管理" style="text;html=1;strokeColor=none;fillColor=none;align=center;verticalAlign=middle;whiteSpace=wrap;rounded=0;fontSize=13;" parent="0KDi5xRY9AjB1vGYeyKL-1" vertex="1">
          <mxGeometry x="487.5" y="160" width="55" height="20" as="geometry" />
        </mxCell>
        <mxCell id="S59Qb9Dpt4DzsVfJs5-Z-65" value="" style="group" parent="0KDi5xRY9AjB1vGYeyKL-1" vertex="1" connectable="0">
          <mxGeometry x="730" y="160" width="150" height="520" as="geometry" />
        </mxCell>
        <mxCell id="S59Qb9Dpt4DzsVfJs5-Z-66" value="" style="shape=internalStorage;whiteSpace=wrap;html=1;backgroundOutline=1;fontSize=16;" parent="S59Qb9Dpt4DzsVfJs5-Z-65" vertex="1">
          <mxGeometry width="150" height="520" as="geometry" />
        </mxCell>
        <mxCell id="S59Qb9Dpt4DzsVfJs5-Z-67" value="模型管理" style="text;html=1;strokeColor=none;fillColor=none;align=center;verticalAlign=middle;whiteSpace=wrap;rounded=0;fontSize=13;" parent="S59Qb9Dpt4DzsVfJs5-Z-65" vertex="1">
          <mxGeometry x="55" width="55" height="20" as="geometry" />
        </mxCell>
        <mxCell id="S59Qb9Dpt4DzsVfJs5-Z-68" value="开始" style="ellipse;whiteSpace=wrap;html=1;fontSize=13;" parent="S59Qb9Dpt4DzsVfJs5-Z-65" vertex="1">
          <mxGeometry x="47.5" y="60" width="70" height="40" as="geometry" />
        </mxCell>
        <mxCell id="S59Qb9Dpt4DzsVfJs5-Z-69" style="edgeStyle=orthogonalEdgeStyle;rounded=0;orthogonalLoop=1;jettySize=auto;html=1;exitX=0.5;exitY=1;exitDx=0;exitDy=0;fontSize=13;curved=1;" parent="S59Qb9Dpt4DzsVfJs5-Z-65" source="S59Qb9Dpt4DzsVfJs5-Z-70" target="S59Qb9Dpt4DzsVfJs5-Z-73" edge="1">
          <mxGeometry relative="1" as="geometry" />
        </mxCell>
        <mxCell id="S59Qb9Dpt4DzsVfJs5-Z-70" value="模型新增 / 导入" style="rounded=1;whiteSpace=wrap;html=1;fontSize=13;" parent="S59Qb9Dpt4DzsVfJs5-Z-65" vertex="1">
          <mxGeometry x="32.5" y="148" width="100" height="40" as="geometry" />
        </mxCell>
        <mxCell id="S59Qb9Dpt4DzsVfJs5-Z-71" style="edgeStyle=orthogonalEdgeStyle;rounded=0;orthogonalLoop=1;jettySize=auto;html=1;exitX=0.5;exitY=1;exitDx=0;exitDy=0;entryX=0.5;entryY=0;entryDx=0;entryDy=0;fontSize=13;curved=1;" parent="S59Qb9Dpt4DzsVfJs5-Z-65" source="S59Qb9Dpt4DzsVfJs5-Z-68" target="S59Qb9Dpt4DzsVfJs5-Z-70" edge="1">
          <mxGeometry relative="1" as="geometry" />
        </mxCell>
        <mxCell id="S59Qb9Dpt4DzsVfJs5-Z-72" style="edgeStyle=orthogonalEdgeStyle;rounded=0;orthogonalLoop=1;jettySize=auto;html=1;exitX=0.5;exitY=1;exitDx=0;exitDy=0;entryX=0.5;entryY=0;entryDx=0;entryDy=0;fontSize=13;curved=1;" parent="S59Qb9Dpt4DzsVfJs5-Z-65" source="S59Qb9Dpt4DzsVfJs5-Z-73" target="S59Qb9Dpt4DzsVfJs5-Z-74" edge="1">
          <mxGeometry relative="1" as="geometry" />
        </mxCell>
        <mxCell id="S59Qb9Dpt4DzsVfJs5-Z-73" value="模型规则设置" style="rounded=1;whiteSpace=wrap;html=1;fontSize=13;" parent="S59Qb9Dpt4DzsVfJs5-Z-65" vertex="1">
          <mxGeometry x="32.5" y="240" width="100" height="40" as="geometry" />
        </mxCell>
        <mxCell id="S59Qb9Dpt4DzsVfJs5-Z-75" style="edgeStyle=orthogonalEdgeStyle;rounded=0;orthogonalLoop=1;jettySize=auto;html=1;exitX=0.5;exitY=1;exitDx=0;exitDy=0;entryX=0.5;entryY=0;entryDx=0;entryDy=0;fontSize=13;curved=1;" parent="S59Qb9Dpt4DzsVfJs5-Z-65" source="S59Qb9Dpt4DzsVfJs5-Z-74" target="S59Qb9Dpt4DzsVfJs5-Z-54" edge="1">
          <mxGeometry relative="1" as="geometry" />
        </mxCell>
        <mxCell id="S59Qb9Dpt4DzsVfJs5-Z-74" value="语法检验" style="rounded=1;whiteSpace=wrap;html=1;fontSize=13;" parent="S59Qb9Dpt4DzsVfJs5-Z-65" vertex="1">
          <mxGeometry x="32.5" y="340" width="100" height="40" as="geometry" />
        </mxCell>
        <mxCell id="S59Qb9Dpt4DzsVfJs5-Z-54" value="模型更新" style="rounded=1;whiteSpace=wrap;html=1;fontSize=13;" parent="S59Qb9Dpt4DzsVfJs5-Z-65" vertex="1">
          <mxGeometry x="32.5" y="440" width="100" height="40" as="geometry" />
        </mxCell>
        <mxCell id="S59Qb9Dpt4DzsVfJs5-Z-82" value="" style="endArrow=none;html=1;strokeWidth=2;curved=1;" parent="0KDi5xRY9AjB1vGYeyKL-1" edge="1">
          <mxGeometry width="50" height="50" relative="1" as="geometry">
            <mxPoint x="400" y="1520" as="sourcePoint" />
            <mxPoint x="400" y="840" as="targetPoint" />
          </mxGeometry>
        </mxCell>
        <mxCell id="S59Qb9Dpt4DzsVfJs5-Z-83" value="API" style="rounded=1;whiteSpace=wrap;html=1;fontSize=16;dashed=1;fontStyle=1;fillColor=#FFFFCC;gradientColor=#FFB366;" parent="0KDi5xRY9AjB1vGYeyKL-1" vertex="1">
          <mxGeometry x="230" y="910" width="120" height="520" as="geometry" />
        </mxCell>
        <mxCell id="S59Qb9Dpt4DzsVfJs5-Z-84" value="" style="shape=flexArrow;endArrow=classic;html=1;fontSize=16;fontColor=#000000;curved=1;" parent="0KDi5xRY9AjB1vGYeyKL-1" edge="1">
          <mxGeometry width="50" height="50" relative="1" as="geometry">
            <mxPoint x="80" y="1029" as="sourcePoint" />
            <mxPoint x="210" y="1029" as="targetPoint" />
          </mxGeometry>
        </mxCell>
        <mxCell id="S59Qb9Dpt4DzsVfJs5-Z-85" value="" style="shape=flexArrow;endArrow=classic;html=1;fontSize=16;fontColor=#000000;curved=1;" parent="0KDi5xRY9AjB1vGYeyKL-1" edge="1">
          <mxGeometry width="50" height="50" relative="1" as="geometry">
            <mxPoint x="205" y="1370" as="sourcePoint" />
            <mxPoint x="65" y="1370" as="targetPoint" />
          </mxGeometry>
        </mxCell>
        <mxCell id="S59Qb9Dpt4DzsVfJs5-Z-86" value="输入：&lt;br style=&quot;font-size: 15px&quot;&gt;&lt;div style=&quot;font-size: 15px&quot;&gt;&lt;span style=&quot;font-size: 15px&quot;&gt;&amp;nbsp; 申请信息、&lt;/span&gt;&lt;/div&gt;&lt;div style=&quot;font-size: 15px&quot;&gt;&lt;span style=&quot;font-size: 15px&quot;&gt;&amp;nbsp; 模型 ID&lt;/span&gt;&lt;/div&gt;" style="text;html=1;strokeColor=none;fillColor=none;align=left;verticalAlign=middle;whiteSpace=wrap;rounded=0;dashed=1;fontSize=15;fontColor=#000000;fontStyle=1" parent="0KDi5xRY9AjB1vGYeyKL-1" vertex="1">
          <mxGeometry x="80" y="949" width="110" height="60" as="geometry" />
        </mxCell>
        <mxCell id="S59Qb9Dpt4DzsVfJs5-Z-101" style="edgeStyle=orthogonalEdgeStyle;rounded=0;orthogonalLoop=1;jettySize=auto;html=1;exitX=1;exitY=0.5;exitDx=0;exitDy=0;entryX=0;entryY=0.5;entryDx=0;entryDy=0;fontSize=15;fontColor=#000000;curved=1;" parent="0KDi5xRY9AjB1vGYeyKL-1" source="S59Qb9Dpt4DzsVfJs5-Z-89" target="S59Qb9Dpt4DzsVfJs5-Z-98" edge="1">
          <mxGeometry relative="1" as="geometry" />
        </mxCell>
        <mxCell id="S59Qb9Dpt4DzsVfJs5-Z-89" value="模型" style="rounded=1;whiteSpace=wrap;html=1;dashed=1;fontSize=15;fontColor=#000000;align=center;fillColor=#99CCFF;" parent="0KDi5xRY9AjB1vGYeyKL-1" vertex="1">
          <mxGeometry x="520" y="850" width="120" height="40" as="geometry" />
        </mxCell>
        <mxCell id="S59Qb9Dpt4DzsVfJs5-Z-114" style="rounded=0;orthogonalLoop=1;jettySize=auto;html=1;entryX=0;entryY=0.5;entryDx=0;entryDy=0;fontSize=15;fontColor=#000000;exitX=1;exitY=0.5;exitDx=0;exitDy=0;curved=1;" parent="0KDi5xRY9AjB1vGYeyKL-1" source="S59Qb9Dpt4DzsVfJs5-Z-92" target="S59Qb9Dpt4DzsVfJs5-Z-108" edge="1">
          <mxGeometry relative="1" as="geometry">
            <mxPoint x="640" y="1000" as="sourcePoint" />
          </mxGeometry>
        </mxCell>
        <mxCell id="S59Qb9Dpt4DzsVfJs5-Z-115" style="edgeStyle=none;rounded=0;orthogonalLoop=1;jettySize=auto;html=1;entryX=0;entryY=0.5;entryDx=0;entryDy=0;fontSize=15;fontColor=#000000;curved=1;" parent="0KDi5xRY9AjB1vGYeyKL-1" target="S59Qb9Dpt4DzsVfJs5-Z-109" edge="1">
          <mxGeometry relative="1" as="geometry">
            <mxPoint x="640" y="1010" as="sourcePoint" />
          </mxGeometry>
        </mxCell>
        <mxCell id="S59Qb9Dpt4DzsVfJs5-Z-116" style="edgeStyle=none;rounded=0;orthogonalLoop=1;jettySize=auto;html=1;exitX=1;exitY=0.5;exitDx=0;exitDy=0;entryX=0;entryY=0.5;entryDx=0;entryDy=0;fontSize=15;fontColor=#000000;curved=1;" parent="0KDi5xRY9AjB1vGYeyKL-1" source="S59Qb9Dpt4DzsVfJs5-Z-92" target="S59Qb9Dpt4DzsVfJs5-Z-110" edge="1">
          <mxGeometry relative="1" as="geometry" />
        </mxCell>
        <mxCell id="S59Qb9Dpt4DzsVfJs5-Z-117" style="edgeStyle=none;rounded=0;orthogonalLoop=1;jettySize=auto;html=1;exitX=1;exitY=0.5;exitDx=0;exitDy=0;entryX=0;entryY=0.75;entryDx=0;entryDy=0;fontSize=15;fontColor=#000000;curved=1;" parent="0KDi5xRY9AjB1vGYeyKL-1" source="S59Qb9Dpt4DzsVfJs5-Z-92" target="S59Qb9Dpt4DzsVfJs5-Z-111" edge="1">
          <mxGeometry relative="1" as="geometry" />
        </mxCell>
        <mxCell id="S59Qb9Dpt4DzsVfJs5-Z-118" style="edgeStyle=none;rounded=0;orthogonalLoop=1;jettySize=auto;html=1;exitX=1;exitY=0.5;exitDx=0;exitDy=0;entryX=0;entryY=0.5;entryDx=0;entryDy=0;fontSize=15;fontColor=#000000;curved=1;" parent="0KDi5xRY9AjB1vGYeyKL-1" source="S59Qb9Dpt4DzsVfJs5-Z-92" target="S59Qb9Dpt4DzsVfJs5-Z-112" edge="1">
          <mxGeometry relative="1" as="geometry" />
        </mxCell>
        <mxCell id="S59Qb9Dpt4DzsVfJs5-Z-92" value="模型 1" style="rounded=1;whiteSpace=wrap;html=1;dashed=1;fontSize=15;align=center;fillColor=#d5e8d4;strokeColor=#82b366;" parent="0KDi5xRY9AjB1vGYeyKL-1" vertex="1">
          <mxGeometry x="520" y="990" width="120" height="40" as="geometry" />
        </mxCell>
        <mxCell id="S59Qb9Dpt4DzsVfJs5-Z-94" value="模型 2" style="rounded=1;whiteSpace=wrap;html=1;dashed=1;fontSize=15;align=center;fillColor=#d5e8d4;strokeColor=#82b366;" parent="0KDi5xRY9AjB1vGYeyKL-1" vertex="1">
          <mxGeometry x="520" y="1080" width="120" height="40" as="geometry" />
        </mxCell>
        <mxCell id="S59Qb9Dpt4DzsVfJs5-Z-95" value="模型 n" style="rounded=1;whiteSpace=wrap;html=1;dashed=1;fontSize=15;align=center;fillColor=#d5e8d4;strokeColor=#82b366;" parent="0KDi5xRY9AjB1vGYeyKL-1" vertex="1">
          <mxGeometry x="520" y="1290" width="120" height="40" as="geometry" />
        </mxCell>
        <mxCell id="S59Qb9Dpt4DzsVfJs5-Z-96" value="……" style="text;html=1;strokeColor=none;fillColor=none;align=center;verticalAlign=middle;whiteSpace=wrap;rounded=0;dashed=1;fontSize=15;fontColor=#000000;fontStyle=1" parent="0KDi5xRY9AjB1vGYeyKL-1" vertex="1">
          <mxGeometry x="560" y="1200" width="40" height="20" as="geometry" />
        </mxCell>
        <mxCell id="S59Qb9Dpt4DzsVfJs5-Z-102" style="edgeStyle=orthogonalEdgeStyle;rounded=0;orthogonalLoop=1;jettySize=auto;html=1;exitX=1;exitY=0.5;exitDx=0;exitDy=0;entryX=0;entryY=0.5;entryDx=0;entryDy=0;fontSize=15;fontColor=#000000;curved=1;" parent="0KDi5xRY9AjB1vGYeyKL-1" source="S59Qb9Dpt4DzsVfJs5-Z-98" target="S59Qb9Dpt4DzsVfJs5-Z-99" edge="1">
          <mxGeometry relative="1" as="geometry" />
        </mxCell>
        <mxCell id="S59Qb9Dpt4DzsVfJs5-Z-98" value="规则" style="rounded=1;whiteSpace=wrap;html=1;dashed=1;fontSize=15;fontColor=#000000;align=center;fillColor=#99CCFF;" parent="0KDi5xRY9AjB1vGYeyKL-1" vertex="1">
          <mxGeometry x="710" y="850" width="120" height="40" as="geometry" />
        </mxCell>
        <mxCell id="S59Qb9Dpt4DzsVfJs5-Z-103" style="edgeStyle=orthogonalEdgeStyle;rounded=0;orthogonalLoop=1;jettySize=auto;html=1;exitX=1;exitY=0.5;exitDx=0;exitDy=0;entryX=0;entryY=0.5;entryDx=0;entryDy=0;fontSize=15;fontColor=#000000;curved=1;" parent="0KDi5xRY9AjB1vGYeyKL-1" source="S59Qb9Dpt4DzsVfJs5-Z-99" target="S59Qb9Dpt4DzsVfJs5-Z-100" edge="1">
          <mxGeometry relative="1" as="geometry" />
        </mxCell>
        <mxCell id="S59Qb9Dpt4DzsVfJs5-Z-99" value="指标" style="rounded=1;whiteSpace=wrap;html=1;dashed=1;fontSize=15;fontColor=#000000;align=center;fillColor=#99CCFF;" parent="0KDi5xRY9AjB1vGYeyKL-1" vertex="1">
          <mxGeometry x="900" y="850" width="120" height="40" as="geometry" />
        </mxCell>
        <mxCell id="S59Qb9Dpt4DzsVfJs5-Z-100" value="数据" style="rounded=1;whiteSpace=wrap;html=1;dashed=1;fontSize=15;fontColor=#000000;align=center;fillColor=#99CCFF;" parent="0KDi5xRY9AjB1vGYeyKL-1" vertex="1">
          <mxGeometry x="1090" y="850" width="120" height="40" as="geometry" />
        </mxCell>
        <mxCell id="S59Qb9Dpt4DzsVfJs5-Z-104" value="m : n" style="text;html=1;strokeColor=none;fillColor=none;align=center;verticalAlign=middle;whiteSpace=wrap;rounded=0;dashed=1;fontSize=15;fontColor=#000000;fontStyle=1" parent="0KDi5xRY9AjB1vGYeyKL-1" vertex="1">
          <mxGeometry x="650" y="850" width="40" height="20" as="geometry" />
        </mxCell>
        <mxCell id="S59Qb9Dpt4DzsVfJs5-Z-106" value="m : n" style="text;html=1;strokeColor=none;fillColor=none;align=center;verticalAlign=middle;whiteSpace=wrap;rounded=0;dashed=1;fontSize=15;fontColor=#000000;fontStyle=1" parent="0KDi5xRY9AjB1vGYeyKL-1" vertex="1">
          <mxGeometry x="840" y="850" width="40" height="20" as="geometry" />
        </mxCell>
        <mxCell id="S59Qb9Dpt4DzsVfJs5-Z-107" value="1 : 1" style="text;html=1;strokeColor=none;fillColor=none;align=center;verticalAlign=middle;whiteSpace=wrap;rounded=0;dashed=1;fontSize=15;fontColor=#000000;fontStyle=1" parent="0KDi5xRY9AjB1vGYeyKL-1" vertex="1">
          <mxGeometry x="1030" y="850" width="40" height="20" as="geometry" />
        </mxCell>
        <mxCell id="S59Qb9Dpt4DzsVfJs5-Z-129" style="edgeStyle=none;rounded=0;orthogonalLoop=1;jettySize=auto;html=1;exitX=1;exitY=0.5;exitDx=0;exitDy=0;fontSize=15;fontColor=#000000;curved=1;" parent="0KDi5xRY9AjB1vGYeyKL-1" source="S59Qb9Dpt4DzsVfJs5-Z-108" target="S59Qb9Dpt4DzsVfJs5-Z-122" edge="1">
          <mxGeometry relative="1" as="geometry" />
        </mxCell>
        <mxCell id="S59Qb9Dpt4DzsVfJs5-Z-162" style="edgeStyle=none;rounded=0;orthogonalLoop=1;jettySize=auto;html=1;exitX=1;exitY=0.5;exitDx=0;exitDy=0;fontSize=15;fontColor=#000000;curved=1;" parent="0KDi5xRY9AjB1vGYeyKL-1" source="S59Qb9Dpt4DzsVfJs5-Z-108" edge="1">
          <mxGeometry relative="1" as="geometry">
            <mxPoint x="900" y="1100" as="targetPoint" />
          </mxGeometry>
        </mxCell>
        <mxCell id="S59Qb9Dpt4DzsVfJs5-Z-108" value="规则 1" style="rounded=1;whiteSpace=wrap;html=1;dashed=1;fontSize=15;align=center;fillColor=#d5e8d4;strokeColor=#82b366;" parent="0KDi5xRY9AjB1vGYeyKL-1" vertex="1">
          <mxGeometry x="710" y="940" width="120" height="40" as="geometry" />
        </mxCell>
        <mxCell id="S59Qb9Dpt4DzsVfJs5-Z-130" style="edgeStyle=none;rounded=0;orthogonalLoop=1;jettySize=auto;html=1;exitX=1;exitY=0.5;exitDx=0;exitDy=0;fontSize=15;fontColor=#000000;curved=1;" parent="0KDi5xRY9AjB1vGYeyKL-1" source="S59Qb9Dpt4DzsVfJs5-Z-109" target="S59Qb9Dpt4DzsVfJs5-Z-123" edge="1">
          <mxGeometry relative="1" as="geometry" />
        </mxCell>
        <mxCell id="S59Qb9Dpt4DzsVfJs5-Z-161" style="edgeStyle=none;rounded=0;orthogonalLoop=1;jettySize=auto;html=1;exitX=1;exitY=0.5;exitDx=0;exitDy=0;entryX=0;entryY=0.5;entryDx=0;entryDy=0;fontSize=15;fontColor=#000000;curved=1;" parent="0KDi5xRY9AjB1vGYeyKL-1" source="S59Qb9Dpt4DzsVfJs5-Z-109" target="S59Qb9Dpt4DzsVfJs5-Z-122" edge="1">
          <mxGeometry relative="1" as="geometry" />
        </mxCell>
        <mxCell id="S59Qb9Dpt4DzsVfJs5-Z-109" value="规则 2" style="rounded=1;whiteSpace=wrap;html=1;dashed=1;fontSize=15;align=center;fillColor=#d5e8d4;strokeColor=#82b366;" parent="0KDi5xRY9AjB1vGYeyKL-1" vertex="1">
          <mxGeometry x="711" y="1010" width="120" height="40" as="geometry" />
        </mxCell>
        <mxCell id="S59Qb9Dpt4DzsVfJs5-Z-131" style="edgeStyle=none;rounded=0;orthogonalLoop=1;jettySize=auto;html=1;exitX=1;exitY=0.5;exitDx=0;exitDy=0;entryX=0;entryY=0.5;entryDx=0;entryDy=0;fontSize=15;fontColor=#000000;curved=1;" parent="0KDi5xRY9AjB1vGYeyKL-1" source="S59Qb9Dpt4DzsVfJs5-Z-110" target="S59Qb9Dpt4DzsVfJs5-Z-124" edge="1">
          <mxGeometry relative="1" as="geometry" />
        </mxCell>
        <mxCell id="S59Qb9Dpt4DzsVfJs5-Z-110" value="规则 3" style="rounded=1;whiteSpace=wrap;html=1;dashed=1;fontSize=15;align=center;fillColor=#d5e8d4;strokeColor=#82b366;" parent="0KDi5xRY9AjB1vGYeyKL-1" vertex="1">
          <mxGeometry x="710" y="1080" width="120" height="40" as="geometry" />
        </mxCell>
        <mxCell id="S59Qb9Dpt4DzsVfJs5-Z-163" style="edgeStyle=none;rounded=0;orthogonalLoop=1;jettySize=auto;html=1;exitX=1;exitY=0.5;exitDx=0;exitDy=0;entryX=0;entryY=0.5;entryDx=0;entryDy=0;fontSize=15;fontColor=#000000;curved=1;" parent="0KDi5xRY9AjB1vGYeyKL-1" source="S59Qb9Dpt4DzsVfJs5-Z-111" target="S59Qb9Dpt4DzsVfJs5-Z-126" edge="1">
          <mxGeometry relative="1" as="geometry" />
        </mxCell>
        <mxCell id="S59Qb9Dpt4DzsVfJs5-Z-111" value="规则 4" style="rounded=1;whiteSpace=wrap;html=1;dashed=1;fontSize=15;align=center;fillColor=#d5e8d4;strokeColor=#82b366;" parent="0KDi5xRY9AjB1vGYeyKL-1" vertex="1">
          <mxGeometry x="720" y="1103" width="120" height="40" as="geometry" />
        </mxCell>
        <mxCell id="S59Qb9Dpt4DzsVfJs5-Z-132" style="edgeStyle=none;rounded=0;orthogonalLoop=1;jettySize=auto;html=1;exitX=1;exitY=0.5;exitDx=0;exitDy=0;entryX=0;entryY=0.5;entryDx=0;entryDy=0;fontSize=15;fontColor=#000000;curved=1;" parent="0KDi5xRY9AjB1vGYeyKL-1" source="S59Qb9Dpt4DzsVfJs5-Z-112" target="S59Qb9Dpt4DzsVfJs5-Z-126" edge="1">
          <mxGeometry relative="1" as="geometry" />
        </mxCell>
        <mxCell id="S59Qb9Dpt4DzsVfJs5-Z-112" value="规则 n-1" style="rounded=1;whiteSpace=wrap;html=1;dashed=1;fontSize=15;align=center;fillColor=#d5e8d4;strokeColor=#82b366;" parent="0KDi5xRY9AjB1vGYeyKL-1" vertex="1">
          <mxGeometry x="711" y="1240" width="120" height="40" as="geometry" />
        </mxCell>
        <mxCell id="S59Qb9Dpt4DzsVfJs5-Z-113" value="规则 n" style="rounded=1;whiteSpace=wrap;html=1;dashed=1;fontSize=15;align=center;fillColor=#d5e8d4;strokeColor=#82b366;" parent="0KDi5xRY9AjB1vGYeyKL-1" vertex="1">
          <mxGeometry x="710" y="1310" width="120" height="40" as="geometry" />
        </mxCell>
        <mxCell id="S59Qb9Dpt4DzsVfJs5-Z-119" value="……" style="text;html=1;strokeColor=none;fillColor=none;align=center;verticalAlign=middle;whiteSpace=wrap;rounded=0;dashed=1;fontSize=15;fontColor=#000000;fontStyle=1" parent="0KDi5xRY9AjB1vGYeyKL-1" vertex="1">
          <mxGeometry x="755" y="1200" width="40" height="20" as="geometry" />
        </mxCell>
        <mxCell id="S59Qb9Dpt4DzsVfJs5-Z-121" value="规则组" style="text;html=1;strokeColor=none;fillColor=none;align=center;verticalAlign=middle;whiteSpace=wrap;rounded=0;dashed=1;fontSize=15;fontColor=#000000;" parent="0KDi5xRY9AjB1vGYeyKL-1" vertex="1">
          <mxGeometry x="740" y="1160" width="60" height="20" as="geometry" />
        </mxCell>
        <mxCell id="S59Qb9Dpt4DzsVfJs5-Z-139" style="edgeStyle=none;rounded=0;orthogonalLoop=1;jettySize=auto;html=1;exitX=1;exitY=0.5;exitDx=0;exitDy=0;entryX=0;entryY=0.5;entryDx=0;entryDy=0;fontSize=15;fontColor=#000000;curved=1;" parent="0KDi5xRY9AjB1vGYeyKL-1" source="S59Qb9Dpt4DzsVfJs5-Z-122" target="S59Qb9Dpt4DzsVfJs5-Z-133" edge="1">
          <mxGeometry relative="1" as="geometry" />
        </mxCell>
        <mxCell id="S59Qb9Dpt4DzsVfJs5-Z-122" value="指标 1" style="rounded=1;whiteSpace=wrap;html=1;dashed=1;fontSize=15;align=center;fillColor=#d5e8d4;strokeColor=#82b366;" parent="0KDi5xRY9AjB1vGYeyKL-1" vertex="1">
          <mxGeometry x="900" y="940" width="120" height="40" as="geometry" />
        </mxCell>
        <mxCell id="S59Qb9Dpt4DzsVfJs5-Z-140" style="edgeStyle=none;rounded=0;orthogonalLoop=1;jettySize=auto;html=1;exitX=1;exitY=0.5;exitDx=0;exitDy=0;fontSize=15;fontColor=#000000;curved=1;" parent="0KDi5xRY9AjB1vGYeyKL-1" source="S59Qb9Dpt4DzsVfJs5-Z-123" target="S59Qb9Dpt4DzsVfJs5-Z-134" edge="1">
          <mxGeometry relative="1" as="geometry" />
        </mxCell>
        <mxCell id="S59Qb9Dpt4DzsVfJs5-Z-123" value="指标 2" style="rounded=1;whiteSpace=wrap;html=1;dashed=1;fontSize=15;align=center;fillColor=#d5e8d4;strokeColor=#82b366;" parent="0KDi5xRY9AjB1vGYeyKL-1" vertex="1">
          <mxGeometry x="901" y="1010" width="120" height="40" as="geometry" />
        </mxCell>
        <mxCell id="S59Qb9Dpt4DzsVfJs5-Z-141" style="edgeStyle=none;rounded=0;orthogonalLoop=1;jettySize=auto;html=1;exitX=1;exitY=0.5;exitDx=0;exitDy=0;entryX=0;entryY=0.5;entryDx=0;entryDy=0;fontSize=15;fontColor=#000000;curved=1;" parent="0KDi5xRY9AjB1vGYeyKL-1" source="S59Qb9Dpt4DzsVfJs5-Z-124" target="S59Qb9Dpt4DzsVfJs5-Z-135" edge="1">
          <mxGeometry relative="1" as="geometry" />
        </mxCell>
        <mxCell id="S59Qb9Dpt4DzsVfJs5-Z-124" value="指标 3" style="rounded=1;whiteSpace=wrap;html=1;dashed=1;fontSize=15;align=center;fillColor=#d5e8d4;strokeColor=#82b366;" parent="0KDi5xRY9AjB1vGYeyKL-1" vertex="1">
          <mxGeometry x="900" y="1080" width="120" height="40" as="geometry" />
        </mxCell>
        <mxCell id="S59Qb9Dpt4DzsVfJs5-Z-142" style="edgeStyle=none;rounded=0;orthogonalLoop=1;jettySize=auto;html=1;exitX=1;exitY=0.5;exitDx=0;exitDy=0;entryX=0;entryY=0.5;entryDx=0;entryDy=0;fontSize=15;fontColor=#000000;curved=1;" parent="0KDi5xRY9AjB1vGYeyKL-1" source="S59Qb9Dpt4DzsVfJs5-Z-126" target="S59Qb9Dpt4DzsVfJs5-Z-136" edge="1">
          <mxGeometry relative="1" as="geometry" />
        </mxCell>
        <mxCell id="S59Qb9Dpt4DzsVfJs5-Z-126" value="指标 n-1" style="rounded=1;whiteSpace=wrap;html=1;dashed=1;fontSize=15;align=center;fillColor=#d5e8d4;strokeColor=#82b366;" parent="0KDi5xRY9AjB1vGYeyKL-1" vertex="1">
          <mxGeometry x="901" y="1240" width="120" height="40" as="geometry" />
        </mxCell>
        <mxCell id="S59Qb9Dpt4DzsVfJs5-Z-127" value="指标 n" style="rounded=1;whiteSpace=wrap;html=1;dashed=1;fontSize=15;align=center;fillColor=#d5e8d4;strokeColor=#82b366;" parent="0KDi5xRY9AjB1vGYeyKL-1" vertex="1">
          <mxGeometry x="900" y="1310" width="120" height="40" as="geometry" />
        </mxCell>
        <mxCell id="S59Qb9Dpt4DzsVfJs5-Z-128" value="……" style="text;html=1;strokeColor=none;fillColor=none;align=center;verticalAlign=middle;whiteSpace=wrap;rounded=0;dashed=1;fontSize=15;fontColor=#000000;fontStyle=1" parent="0KDi5xRY9AjB1vGYeyKL-1" vertex="1">
          <mxGeometry x="941" y="1200" width="40" height="20" as="geometry" />
        </mxCell>
        <mxCell id="S59Qb9Dpt4DzsVfJs5-Z-133" value="数据 1" style="rounded=1;whiteSpace=wrap;html=1;dashed=1;fontSize=15;align=center;fillColor=#d5e8d4;strokeColor=#82b366;" parent="0KDi5xRY9AjB1vGYeyKL-1" vertex="1">
          <mxGeometry x="1090" y="940" width="120" height="40" as="geometry" />
        </mxCell>
        <mxCell id="S59Qb9Dpt4DzsVfJs5-Z-134" value="数据 2" style="rounded=1;whiteSpace=wrap;html=1;dashed=1;fontSize=15;align=center;fillColor=#d5e8d4;strokeColor=#82b366;" parent="0KDi5xRY9AjB1vGYeyKL-1" vertex="1">
          <mxGeometry x="1091" y="1010" width="120" height="40" as="geometry" />
        </mxCell>
        <mxCell id="S59Qb9Dpt4DzsVfJs5-Z-135" value="数据 3" style="rounded=1;whiteSpace=wrap;html=1;dashed=1;fontSize=15;align=center;fillColor=#d5e8d4;strokeColor=#82b366;" parent="0KDi5xRY9AjB1vGYeyKL-1" vertex="1">
          <mxGeometry x="1090" y="1080" width="120" height="40" as="geometry" />
        </mxCell>
        <mxCell id="S59Qb9Dpt4DzsVfJs5-Z-136" value="数据 n-1" style="rounded=1;whiteSpace=wrap;html=1;dashed=1;fontSize=15;align=center;fillColor=#d5e8d4;strokeColor=#82b366;" parent="0KDi5xRY9AjB1vGYeyKL-1" vertex="1">
          <mxGeometry x="1091" y="1240" width="120" height="40" as="geometry" />
        </mxCell>
        <mxCell id="S59Qb9Dpt4DzsVfJs5-Z-137" value="数据 n" style="rounded=1;whiteSpace=wrap;html=1;dashed=1;fontSize=15;align=center;fillColor=#d5e8d4;strokeColor=#82b366;" parent="0KDi5xRY9AjB1vGYeyKL-1" vertex="1">
          <mxGeometry x="1090" y="1310" width="120" height="40" as="geometry" />
        </mxCell>
        <mxCell id="S59Qb9Dpt4DzsVfJs5-Z-138" value="……" style="text;html=1;strokeColor=none;fillColor=none;align=center;verticalAlign=middle;whiteSpace=wrap;rounded=0;dashed=1;fontSize=15;fontColor=#000000;fontStyle=1" parent="0KDi5xRY9AjB1vGYeyKL-1" vertex="1">
          <mxGeometry x="1131" y="1200" width="40" height="20" as="geometry" />
        </mxCell>
        <mxCell id="S59Qb9Dpt4DzsVfJs5-Z-150" style="edgeStyle=none;rounded=0;orthogonalLoop=1;jettySize=auto;html=1;exitX=0;exitY=0.5;exitDx=0;exitDy=0;exitPerimeter=0;entryX=1;entryY=0.75;entryDx=0;entryDy=0;fontSize=15;fontColor=#000000;curved=1;" parent="0KDi5xRY9AjB1vGYeyKL-1" source="S59Qb9Dpt4DzsVfJs5-Z-149" target="S59Qb9Dpt4DzsVfJs5-Z-133" edge="1">
          <mxGeometry relative="1" as="geometry" />
        </mxCell>
        <mxCell id="S59Qb9Dpt4DzsVfJs5-Z-151" style="edgeStyle=none;rounded=0;orthogonalLoop=1;jettySize=auto;html=1;exitX=0;exitY=0.5;exitDx=0;exitDy=0;exitPerimeter=0;entryX=1;entryY=0.5;entryDx=0;entryDy=0;fontSize=15;fontColor=#000000;curved=1;" parent="0KDi5xRY9AjB1vGYeyKL-1" source="S59Qb9Dpt4DzsVfJs5-Z-149" target="S59Qb9Dpt4DzsVfJs5-Z-134" edge="1">
          <mxGeometry relative="1" as="geometry" />
        </mxCell>
        <mxCell id="S59Qb9Dpt4DzsVfJs5-Z-152" style="edgeStyle=none;rounded=0;orthogonalLoop=1;jettySize=auto;html=1;exitX=0;exitY=0.5;exitDx=0;exitDy=0;exitPerimeter=0;entryX=1;entryY=0.5;entryDx=0;entryDy=0;fontSize=15;fontColor=#000000;curved=1;" parent="0KDi5xRY9AjB1vGYeyKL-1" source="S59Qb9Dpt4DzsVfJs5-Z-149" target="S59Qb9Dpt4DzsVfJs5-Z-135" edge="1">
          <mxGeometry relative="1" as="geometry" />
        </mxCell>
        <mxCell id="S59Qb9Dpt4DzsVfJs5-Z-153" style="edgeStyle=none;rounded=0;orthogonalLoop=1;jettySize=auto;html=1;exitX=0;exitY=0.5;exitDx=0;exitDy=0;exitPerimeter=0;entryX=1;entryY=0.5;entryDx=0;entryDy=0;fontSize=15;fontColor=#000000;curved=1;" parent="0KDi5xRY9AjB1vGYeyKL-1" source="S59Qb9Dpt4DzsVfJs5-Z-149" target="S59Qb9Dpt4DzsVfJs5-Z-136" edge="1">
          <mxGeometry relative="1" as="geometry" />
        </mxCell>
        <mxCell id="S59Qb9Dpt4DzsVfJs5-Z-154" style="edgeStyle=none;rounded=0;orthogonalLoop=1;jettySize=auto;html=1;exitX=0;exitY=0.5;exitDx=0;exitDy=0;exitPerimeter=0;entryX=1;entryY=0.5;entryDx=0;entryDy=0;fontSize=15;fontColor=#000000;curved=1;" parent="0KDi5xRY9AjB1vGYeyKL-1" source="S59Qb9Dpt4DzsVfJs5-Z-149" target="S59Qb9Dpt4DzsVfJs5-Z-137" edge="1">
          <mxGeometry relative="1" as="geometry" />
        </mxCell>
        <mxCell id="S59Qb9Dpt4DzsVfJs5-Z-149" value="DB" style="shape=cylinder3;whiteSpace=wrap;html=1;boundedLbl=1;backgroundOutline=1;size=15;" parent="0KDi5xRY9AjB1vGYeyKL-1" vertex="1">
          <mxGeometry x="1300" y="1130" width="90" height="60" as="geometry" />
        </mxCell>
        <mxCell id="S59Qb9Dpt4DzsVfJs5-Z-155" value="" style="shape=singleArrow;whiteSpace=wrap;html=1;arrowWidth=0.375;arrowSize=0.5;" parent="0KDi5xRY9AjB1vGYeyKL-1" vertex="1">
          <mxGeometry x="420" y="939" width="60" height="61" as="geometry" />
        </mxCell>
        <mxCell id="S59Qb9Dpt4DzsVfJs5-Z-156" value="" style="shape=singleArrow;whiteSpace=wrap;html=1;arrowWidth=0.375;arrowSize=0.5;rotation=-180;" parent="0KDi5xRY9AjB1vGYeyKL-1" vertex="1">
          <mxGeometry x="420" y="1420" width="60" height="61" as="geometry" />
        </mxCell>
        <mxCell id="S59Qb9Dpt4DzsVfJs5-Z-157" value="" style="shape=flexArrow;endArrow=classic;html=1;fontSize=15;fontColor=#000000;curved=1;" parent="0KDi5xRY9AjB1vGYeyKL-1" edge="1">
          <mxGeometry width="50" height="50" relative="1" as="geometry">
            <mxPoint x="1191" y="1390" as="sourcePoint" />
            <mxPoint x="1131" y="1450" as="targetPoint" />
            <Array as="points">
              <mxPoint x="1191" y="1450" />
            </Array>
          </mxGeometry>
        </mxCell>
        <mxCell id="S59Qb9Dpt4DzsVfJs5-Z-158" value="计算指标" style="rounded=1;whiteSpace=wrap;html=1;dashed=1;fontSize=15;align=center;fillColor=#fff2cc;strokeColor=#d6b656;" parent="0KDi5xRY9AjB1vGYeyKL-1" vertex="1">
          <mxGeometry x="1040" y="1430" width="80" height="40" as="geometry" />
        </mxCell>
        <mxCell id="S59Qb9Dpt4DzsVfJs5-Z-159" value="" style="shape=flexArrow;endArrow=classic;html=1;fontSize=15;fontColor=#000000;curved=1;" parent="0KDi5xRY9AjB1vGYeyKL-1" edge="1">
          <mxGeometry width="50" height="50" relative="1" as="geometry">
            <mxPoint x="1030" y="1449.5" as="sourcePoint" />
            <mxPoint x="960" y="1450" as="targetPoint" />
          </mxGeometry>
        </mxCell>
        <mxCell id="S59Qb9Dpt4DzsVfJs5-Z-160" value="命中规则" style="rounded=1;whiteSpace=wrap;html=1;dashed=1;fontSize=15;align=center;fillColor=#fff2cc;strokeColor=#d6b656;" parent="0KDi5xRY9AjB1vGYeyKL-1" vertex="1">
          <mxGeometry x="870" y="1430.5" width="80" height="40" as="geometry" />
        </mxCell>
        <mxCell id="S59Qb9Dpt4DzsVfJs5-Z-165" value="" style="shape=flexArrow;endArrow=classic;html=1;fontSize=15;fontColor=#000000;curved=1;" parent="0KDi5xRY9AjB1vGYeyKL-1" edge="1">
          <mxGeometry width="50" height="50" relative="1" as="geometry">
            <mxPoint x="860" y="1449.5" as="sourcePoint" />
            <mxPoint x="790" y="1450" as="targetPoint" />
          </mxGeometry>
        </mxCell>
        <mxCell id="S59Qb9Dpt4DzsVfJs5-Z-166" value="汇总规则结果" style="rounded=1;whiteSpace=wrap;html=1;dashed=1;fontSize=15;align=center;fillColor=#fff2cc;strokeColor=#d6b656;" parent="0KDi5xRY9AjB1vGYeyKL-1" vertex="1">
          <mxGeometry x="680" y="1430" width="100" height="40" as="geometry" />
        </mxCell>
        <mxCell id="S59Qb9Dpt4DzsVfJs5-Z-167" value="输出模型结果" style="rounded=1;whiteSpace=wrap;html=1;dashed=1;fontSize=15;align=center;fillColor=#fff2cc;strokeColor=#d6b656;" parent="0KDi5xRY9AjB1vGYeyKL-1" vertex="1">
          <mxGeometry x="490" y="1430" width="100" height="40" as="geometry" />
        </mxCell>
        <mxCell id="S59Qb9Dpt4DzsVfJs5-Z-169" value="" style="shape=flexArrow;endArrow=classic;html=1;fontSize=15;fontColor=#000000;curved=1;" parent="0KDi5xRY9AjB1vGYeyKL-1" edge="1">
          <mxGeometry width="50" height="50" relative="1" as="geometry">
            <mxPoint x="670" y="1449.5" as="sourcePoint" />
            <mxPoint x="600" y="1450" as="targetPoint" />
          </mxGeometry>
        </mxCell>
        <mxCell id="S59Qb9Dpt4DzsVfJs5-Z-170" value="输出：&lt;br style=&quot;font-size: 15px&quot;&gt;&lt;div style=&quot;font-size: 15px&quot;&gt;&lt;span style=&quot;font-size: 15px&quot;&gt;&amp;nbsp; 模型结果&lt;br&gt;&lt;/span&gt;&lt;/div&gt;" style="text;html=1;strokeColor=none;fillColor=none;align=left;verticalAlign=middle;whiteSpace=wrap;rounded=0;dashed=1;fontSize=15;fontColor=#000000;fontStyle=1" parent="0KDi5xRY9AjB1vGYeyKL-1" vertex="1">
          <mxGeometry x="70" y="1280" width="110" height="60" as="geometry" />
        </mxCell>
        <mxCell id="bV53-A4vDUp8O7vBV4Kg-0" value="" style="group" vertex="1" connectable="0" parent="0KDi5xRY9AjB1vGYeyKL-1">
          <mxGeometry x="950" y="160" width="150" height="520" as="geometry" />
        </mxCell>
        <mxCell id="bV53-A4vDUp8O7vBV4Kg-1" value="" style="shape=internalStorage;whiteSpace=wrap;html=1;backgroundOutline=1;fontSize=16;" vertex="1" parent="bV53-A4vDUp8O7vBV4Kg-0">
          <mxGeometry width="150" height="520" as="geometry" />
        </mxCell>
        <mxCell id="bV53-A4vDUp8O7vBV4Kg-2" value="模型测试" style="text;html=1;strokeColor=none;fillColor=none;align=center;verticalAlign=middle;whiteSpace=wrap;rounded=0;fontSize=13;" vertex="1" parent="bV53-A4vDUp8O7vBV4Kg-0">
          <mxGeometry x="55" width="55" height="20" as="geometry" />
        </mxCell>
        <mxCell id="bV53-A4vDUp8O7vBV4Kg-3" value="开始" style="ellipse;whiteSpace=wrap;html=1;fontSize=13;" vertex="1" parent="bV53-A4vDUp8O7vBV4Kg-0">
          <mxGeometry x="47.5" y="60" width="70" height="40" as="geometry" />
        </mxCell>
        <mxCell id="bV53-A4vDUp8O7vBV4Kg-4" style="edgeStyle=orthogonalEdgeStyle;rounded=0;orthogonalLoop=1;jettySize=auto;html=1;exitX=0.5;exitY=1;exitDx=0;exitDy=0;fontSize=13;curved=1;" edge="1" parent="bV53-A4vDUp8O7vBV4Kg-0" source="bV53-A4vDUp8O7vBV4Kg-5" target="bV53-A4vDUp8O7vBV4Kg-8">
          <mxGeometry relative="1" as="geometry" />
        </mxCell>
        <mxCell id="bV53-A4vDUp8O7vBV4Kg-5" value="灰度发布" style="rounded=1;whiteSpace=wrap;html=1;fontSize=13;" vertex="1" parent="bV53-A4vDUp8O7vBV4Kg-0">
          <mxGeometry x="32.5" y="148" width="100" height="40" as="geometry" />
        </mxCell>
        <mxCell id="bV53-A4vDUp8O7vBV4Kg-6" style="edgeStyle=orthogonalEdgeStyle;rounded=0;orthogonalLoop=1;jettySize=auto;html=1;exitX=0.5;exitY=1;exitDx=0;exitDy=0;entryX=0.5;entryY=0;entryDx=0;entryDy=0;fontSize=13;curved=1;" edge="1" parent="bV53-A4vDUp8O7vBV4Kg-0" source="bV53-A4vDUp8O7vBV4Kg-3" target="bV53-A4vDUp8O7vBV4Kg-5">
          <mxGeometry relative="1" as="geometry" />
        </mxCell>
        <mxCell id="bV53-A4vDUp8O7vBV4Kg-7" style="edgeStyle=orthogonalEdgeStyle;rounded=0;orthogonalLoop=1;jettySize=auto;html=1;exitX=0.5;exitY=1;exitDx=0;exitDy=0;entryX=0.5;entryY=0;entryDx=0;entryDy=0;fontSize=13;curved=1;" edge="1" parent="bV53-A4vDUp8O7vBV4Kg-0" source="bV53-A4vDUp8O7vBV4Kg-8" target="bV53-A4vDUp8O7vBV4Kg-10">
          <mxGeometry relative="1" as="geometry" />
        </mxCell>
        <mxCell id="bV53-A4vDUp8O7vBV4Kg-8" value="导入数据" style="rounded=1;whiteSpace=wrap;html=1;fontSize=13;" vertex="1" parent="bV53-A4vDUp8O7vBV4Kg-0">
          <mxGeometry x="32.5" y="240" width="100" height="40" as="geometry" />
        </mxCell>
        <mxCell id="bV53-A4vDUp8O7vBV4Kg-9" style="edgeStyle=orthogonalEdgeStyle;rounded=0;orthogonalLoop=1;jettySize=auto;html=1;exitX=0.5;exitY=1;exitDx=0;exitDy=0;entryX=0.5;entryY=0;entryDx=0;entryDy=0;fontSize=13;curved=1;" edge="1" parent="bV53-A4vDUp8O7vBV4Kg-0" source="bV53-A4vDUp8O7vBV4Kg-10" target="bV53-A4vDUp8O7vBV4Kg-11">
          <mxGeometry relative="1" as="geometry" />
        </mxCell>
        <mxCell id="bV53-A4vDUp8O7vBV4Kg-10" value="模型测试" style="rounded=1;whiteSpace=wrap;html=1;fontSize=13;" vertex="1" parent="bV53-A4vDUp8O7vBV4Kg-0">
          <mxGeometry x="32.5" y="340" width="100" height="40" as="geometry" />
        </mxCell>
        <mxCell id="bV53-A4vDUp8O7vBV4Kg-11" value="测试结果" style="rounded=1;whiteSpace=wrap;html=1;fontSize=13;" vertex="1" parent="bV53-A4vDUp8O7vBV4Kg-0">
          <mxGeometry x="32.5" y="440" width="100" height="40" as="geometry" />
        </mxCell>
        <mxCell id="bV53-A4vDUp8O7vBV4Kg-12" value="" style="group" vertex="1" connectable="0" parent="0KDi5xRY9AjB1vGYeyKL-1">
          <mxGeometry x="1171" y="160" width="150" height="520" as="geometry" />
        </mxCell>
        <mxCell id="bV53-A4vDUp8O7vBV4Kg-13" value="" style="shape=internalStorage;whiteSpace=wrap;html=1;backgroundOutline=1;fontSize=16;" vertex="1" parent="bV53-A4vDUp8O7vBV4Kg-12">
          <mxGeometry width="150" height="520" as="geometry" />
        </mxCell>
        <mxCell id="bV53-A4vDUp8O7vBV4Kg-14" value="模型发布" style="text;html=1;strokeColor=none;fillColor=none;align=center;verticalAlign=middle;whiteSpace=wrap;rounded=0;fontSize=13;" vertex="1" parent="bV53-A4vDUp8O7vBV4Kg-12">
          <mxGeometry x="55" width="55" height="20" as="geometry" />
        </mxCell>
        <mxCell id="bV53-A4vDUp8O7vBV4Kg-15" value="开始" style="ellipse;whiteSpace=wrap;html=1;fontSize=13;" vertex="1" parent="bV53-A4vDUp8O7vBV4Kg-12">
          <mxGeometry x="47.5" y="60" width="70" height="40" as="geometry" />
        </mxCell>
        <mxCell id="bV53-A4vDUp8O7vBV4Kg-16" style="edgeStyle=orthogonalEdgeStyle;rounded=0;orthogonalLoop=1;jettySize=auto;html=1;exitX=0.5;exitY=1;exitDx=0;exitDy=0;fontSize=13;curved=1;" edge="1" parent="bV53-A4vDUp8O7vBV4Kg-12" source="bV53-A4vDUp8O7vBV4Kg-17" target="bV53-A4vDUp8O7vBV4Kg-20">
          <mxGeometry relative="1" as="geometry" />
        </mxCell>
        <mxCell id="bV53-A4vDUp8O7vBV4Kg-17" value="发布模型" style="rounded=1;whiteSpace=wrap;html=1;fontSize=13;" vertex="1" parent="bV53-A4vDUp8O7vBV4Kg-12">
          <mxGeometry x="32.5" y="148" width="100" height="40" as="geometry" />
        </mxCell>
        <mxCell id="bV53-A4vDUp8O7vBV4Kg-18" style="edgeStyle=orthogonalEdgeStyle;rounded=0;orthogonalLoop=1;jettySize=auto;html=1;exitX=0.5;exitY=1;exitDx=0;exitDy=0;entryX=0.5;entryY=0;entryDx=0;entryDy=0;fontSize=13;curved=1;" edge="1" parent="bV53-A4vDUp8O7vBV4Kg-12" source="bV53-A4vDUp8O7vBV4Kg-15" target="bV53-A4vDUp8O7vBV4Kg-17">
          <mxGeometry relative="1" as="geometry" />
        </mxCell>
        <mxCell id="bV53-A4vDUp8O7vBV4Kg-19" style="edgeStyle=orthogonalEdgeStyle;rounded=0;orthogonalLoop=1;jettySize=auto;html=1;exitX=0.5;exitY=1;exitDx=0;exitDy=0;entryX=0.5;entryY=0;entryDx=0;entryDy=0;fontSize=13;curved=1;" edge="1" parent="bV53-A4vDUp8O7vBV4Kg-12" source="bV53-A4vDUp8O7vBV4Kg-20" target="bV53-A4vDUp8O7vBV4Kg-22">
          <mxGeometry relative="1" as="geometry" />
        </mxCell>
        <mxCell id="bV53-A4vDUp8O7vBV4Kg-20" value="对外服务" style="rounded=1;whiteSpace=wrap;html=1;fontSize=13;" vertex="1" parent="bV53-A4vDUp8O7vBV4Kg-12">
          <mxGeometry x="32.5" y="240" width="100" height="40" as="geometry" />
        </mxCell>
        <mxCell id="bV53-A4vDUp8O7vBV4Kg-21" style="edgeStyle=orthogonalEdgeStyle;rounded=0;orthogonalLoop=1;jettySize=auto;html=1;exitX=0.5;exitY=1;exitDx=0;exitDy=0;entryX=0.5;entryY=0;entryDx=0;entryDy=0;fontSize=13;curved=1;" edge="1" parent="bV53-A4vDUp8O7vBV4Kg-12" source="bV53-A4vDUp8O7vBV4Kg-22" target="bV53-A4vDUp8O7vBV4Kg-23">
          <mxGeometry relative="1" as="geometry" />
        </mxCell>
        <mxCell id="bV53-A4vDUp8O7vBV4Kg-22" value="输出结果" style="rounded=1;whiteSpace=wrap;html=1;fontSize=13;" vertex="1" parent="bV53-A4vDUp8O7vBV4Kg-12">
          <mxGeometry x="32.5" y="340" width="100" height="40" as="geometry" />
        </mxCell>
        <mxCell id="bV53-A4vDUp8O7vBV4Kg-23" value="记录历史" style="rounded=1;whiteSpace=wrap;html=1;fontSize=13;" vertex="1" parent="bV53-A4vDUp8O7vBV4Kg-12">
          <mxGeometry x="32.5" y="440" width="100" height="40" as="geometry" />
        </mxCell>
        <mxCell id="bV53-A4vDUp8O7vBV4Kg-24" value="列表展示" style="rounded=1;whiteSpace=wrap;html=1;fontSize=13;" vertex="1" parent="0KDi5xRY9AjB1vGYeyKL-1">
          <mxGeometry x="465" y="510" width="100" height="40" as="geometry" />
        </mxCell>
        <mxCell id="bV53-A4vDUp8O7vBV4Kg-28" style="edgeStyle=orthogonalEdgeStyle;rounded=0;orthogonalLoop=1;jettySize=auto;html=1;exitX=1;exitY=0.5;exitDx=0;exitDy=0;entryX=0;entryY=0.5;entryDx=0;entryDy=0;dashed=1;curved=1;" edge="1" parent="0KDi5xRY9AjB1vGYeyKL-1" source="S59Qb9Dpt4DzsVfJs5-Z-54" target="bV53-A4vDUp8O7vBV4Kg-3">
          <mxGeometry relative="1" as="geometry" />
        </mxCell>
        <mxCell id="bV53-A4vDUp8O7vBV4Kg-29" value="灰度&lt;br style=&quot;font-size: 13px;&quot;&gt;测试" style="text;html=1;strokeColor=none;fillColor=none;align=center;verticalAlign=middle;whiteSpace=wrap;rounded=0;fontSize=13;" vertex="1" parent="0KDi5xRY9AjB1vGYeyKL-1">
          <mxGeometry x="890" y="430" width="40" height="20" as="geometry" />
        </mxCell>
        <mxCell id="bV53-A4vDUp8O7vBV4Kg-30" style="edgeStyle=orthogonalEdgeStyle;rounded=0;orthogonalLoop=1;jettySize=auto;html=1;exitX=1;exitY=0.5;exitDx=0;exitDy=0;entryX=0;entryY=0.5;entryDx=0;entryDy=0;dashed=1;curved=1;" edge="1" parent="0KDi5xRY9AjB1vGYeyKL-1" source="bV53-A4vDUp8O7vBV4Kg-11" target="bV53-A4vDUp8O7vBV4Kg-15">
          <mxGeometry relative="1" as="geometry" />
        </mxCell>
        <mxCell id="bV53-A4vDUp8O7vBV4Kg-31" value="正式&lt;br&gt;发布" style="text;html=1;strokeColor=none;fillColor=none;align=center;verticalAlign=middle;whiteSpace=wrap;rounded=0;fontSize=13;" vertex="1" parent="0KDi5xRY9AjB1vGYeyKL-1">
          <mxGeometry x="1110" y="430" width="40" height="20" as="geometry" />
        </mxCell>
      </root>
    </mxGraphModel>
  </diagram>
</mxfile>
